<?xml version="1.0" encoding="utf-8"?>
<!-- Generator: Adobe Illustrator 19.2.0, SVG Export Plug-In . SVG Version: 6.00 Build 0)  -->
<svg version="1.1" id="Layer_1" xmlns="http://www.w3.org/2000/svg" xmlns:xlink="http://www.w3.org/1999/xlink" x="0px" y="0px"
	 viewBox="0 0 93.6 93.6" style="enable-background:new 0 0 93.6 93.6;" xml:space="preserve">
<style type="text/css">
	.st0{fill:#FFFFFF;stroke:#FFFFFF;stroke-miterlimit:10;}
	.st1{fill:none;stroke:#FFFFFF;stroke-miterlimit:10;}
</style>
<g>
	<g>
		<path class="st0" d="M46.5,47.8L30.1,19.4c-0.1-0.2-0.5-0.8-0.8-0.9c-0.3-0.1-1.4-0.1-2.1-0.1c0,0,0,0-5.7,0.1
			c-2.3,0-2.7,1-2.7,1.7l-0.6,6.5l-0.7-0.1l0.6-6.5c0.1-1.6,1.3-2.3,3.5-2.3c0,0,5.6-0.1,5.7-0.1c0.2,0,1.7,0,2.3,0.2
			c0.6,0.2,1,0.8,1.3,1.2l15.7,27.3l1.2-2l0.6,0.4L46.5,47.8z"/>
	</g>
	<g>
		<path class="st0" d="M52.2,63.9H40.8c-1.1,0-2.2-0.6-2.8-1.6l-7.7-13.4l0.6-0.4l7.7,13.4c0.4,0.8,1.3,1.2,2.1,1.2h11.3
			c0.9,0,1.6-0.4,2.1-1.2l1.9-3.1l0.6,0.4l-1.9,3.1C54.3,63.4,53.3,63.9,52.2,63.9z"/>
	</g>
	<g>
		<g>
			<path class="st1" d="M28.7,50.8"/>
		</g>
	</g>
	<g>
		<g>
			<path class="st1" d="M16,28.7"/>
		</g>
	</g>
	<g>
		<path class="st0" d="M25.8,74.2c-0.1,0-0.2,0-0.3,0l-8.8,0c-1.8-0.2-3.1-2.5-3-4.3l4.4-50c0.1-1.6,1.3-2.3,3.5-2.3l5.7-0.1
			c0.2,0,1.7,0,2.3,0.2c0.6,0.2,1,0.8,1.3,1.2l0,0l2.4,4.3l-4.2,48c-0.1,0.9-0.5,1.6-1.1,2.2C27.3,73.9,26.6,74.2,25.8,74.2z
			 M27.3,18.3L27.3,18.3l-5.7,0.1c-2.3,0-2.7,1-2.7,1.7l-4.4,50c-0.1,1.4,0.9,3.4,2.3,3.5l8.8,0c0.7,0.1,1.3-0.1,1.8-0.6
			c0.5-0.4,0.8-1,0.9-1.7l4.2-47.8l-2.3-4.1c-0.1-0.2-0.5-0.8-0.8-0.9C29,18.3,27.9,18.2,27.3,18.3z"/>
	</g>
	<g>
		<path class="st0" d="M52.3,63.9H40.9c-1.1,0-2.1-0.6-2.7-1.5l-0.5-0.8l8.5-14.8l0.3,0.2l0.3-0.3L47,47l-0.1,0.3l-8.3,14.4l0.2,0.4
			c0.5,0.7,1.2,1.2,2.1,1.2h11.3c0.9,0,1.7-0.5,2.1-1.2l0.3-0.5l0.6,0.4L55,62.3C54.5,63.3,53.4,63.9,52.3,63.9z"/>
	</g>
	<g>
		
			<rect x="51.3" y="54.8" transform="matrix(0.5001 -0.866 0.866 0.5001 -18.4279 78.4484)" class="st0" width="14.9" height="0.7"/>
	</g>
	<g>
		
			<rect x="62.1" y="48.7" transform="matrix(0.9964 -8.519103e-02 8.519103e-02 0.9964 -3.9285 5.4994)" class="st0" width="0.7" height="0.1"/>
	</g>
	<g>
		<g>
			<path class="st1" d="M66.2,51.1"/>
		</g>
	</g>
	<g>
		<g>
			<path class="st1" d="M79,29"/>
		</g>
	</g>
	<g>
		<path class="st0" d="M46.9,47.2l-0.6-0.4l16.1-27.8c0.3-0.5,0.7-1.1,1.3-1.2c0.6-0.2,2.1-0.2,2.3-0.2l5.7,0.1
			c2.2,0,3.3,0.8,3.4,2.3l0.6,6.5l-0.7,0.1l-0.6-6.5c-0.1-0.7-0.4-1.7-2.7-1.7l-5.8-0.1c-0.6,0-1.7,0-2,0.1
			c-0.4,0.1-0.7,0.7-0.8,0.9L46.9,47.2z"/>
	</g>
	<g>
		<path class="st0" d="M67.3,74.2c-0.7,0-1.5-0.3-2-0.8c-0.7-0.6-1.1-1.3-1.1-2.2l-2-22.4l0.7-0.1l2,22.4c0.1,1.4,1.3,2.4,2.7,2.3
			l8.9,0c1.3-0.1,2.3-2.1,2.2-3.5l-3.8-43.4l0.7-0.1l3.8,43.4c0.1,0.9-0.2,1.9-0.7,2.7c-0.6,0.9-1.4,1.5-2.2,1.6l-8.9,0
			C67.4,74.2,67.4,74.2,67.3,74.2z"/>
	</g>
	<g>
		<path class="st0" d="M62.1,48.9l-2.2-25.6l2.4-4.2c0.3-0.5,0.6-1.1,1.2-1.3c0.6-0.2,2.1-0.2,2.3-0.2c0.1,0,5.7,0.1,5.7,0.1
			c2.1,0,3.3,0.8,3.4,2.3l0.6,6.5l-0.7,0.1L74.3,20c-0.1-0.7-0.4-1.7-2.7-1.7c-5.7-0.1-5.7-0.1-5.8-0.1c-0.5,0-1.6,0-2,0.1
			c-0.3,0.1-0.6,0.6-0.8,1l-2.3,4l2.2,25.4L62.1,48.9z"/>
	</g>
</g>
</svg>
