<?xml version="1.0" encoding="utf-8"?>
<!-- Generator: Adobe Illustrator 19.2.0, SVG Export Plug-In . SVG Version: 6.00 Build 0)  -->
<svg version="1.1" id="Layer_1" xmlns="http://www.w3.org/2000/svg" xmlns:xlink="http://www.w3.org/1999/xlink" x="0px" y="0px"
	 width="100px" height="100px" viewBox="0 0 100 100" style="enable-background:new 0 0 100 100;" xml:space="preserve">
<style type="text/css">
	.st0{fill:#FFFFFF;}
</style>
<g>
	<path class="st0" d="M50.7,10.1c22,0,39.7,17.8,39.6,40c-0.1,20.8-16.9,39.5-40.4,39.1C28.5,88.9,10.4,72,11,48
		C11.6,27.2,28.7,10.1,50.7,10.1z M50.6,86.1c20,0,36.6-16.4,36.5-36.4c-0.1-20-15.8-36.6-36.4-36.6C29.9,13,14.1,30.2,14.1,49.4
		C14.1,69.7,30.3,86.1,50.6,86.1z"/>
</g>
<g>
	<g>
		<polygon class="st0" points="50.9,68.1 34.2,56.1 36,53.6 50.9,64.3 65.2,53.6 67.1,56.1 		"/>
	</g>
	<g>
		<rect x="49" y="31" class="st0" width="3" height="34"/>
	</g>
</g>
</svg>
