<?xml version="1.0" encoding="utf-8"?>
<!-- Generator: Adobe Illustrator 23.0.4, SVG Export Plug-In . SVG Version: 6.00 Build 0)  -->
<svg version="1.1" id="Camada_1" xmlns="http://www.w3.org/2000/svg" xmlns:xlink="http://www.w3.org/1999/xlink" x="0px" y="0px"
	 viewBox="0 0 172 90" style="enable-background:new 0 0 172 90;" xml:space="preserve">
<style type="text/css">
	.st0{fill:#FFFFFF;}
</style>
<g>
	<g>
		<path class="st0" d="M66.4,88.9h-34c-5,0-9.6-2.7-12.1-7.1l-17-29.4c-2.5-4.4-2.5-9.6,0-14L20.3,9c2.5-4.3,7.1-7,12.1-7h34
			c5,0,9.7,2.7,12.1,7l17,29.4c2.5,4.3,2.5,9.7,0,14.1l-17,29.4C76,86.2,71.4,88.9,66.4,88.9z M32.4,3c-4.6,0-9,2.5-11.3,6.5L4.1,39
			c-2.3,4.1-2.3,8.9,0,13l17,29.4c2.3,4,6.6,6.6,11.3,6.6h34c4.6,0,9-2.5,11.3-6.5l17-29.4c2.3-4,2.3-9.1,0-13.1l-17-29.4
			C75.4,5.5,71.1,3,66.4,3H32.4z M64.9,67.3H33.8c-1.3,0-2.4-1.1-2.4-2.4v-6.2c0-7.2,5.8-13,13-13h9.8c7.2,0,13,5.8,13,13v5.7
			l0.1,0.5C67.3,66.2,66.2,67.3,64.9,67.3z M44.4,46.7c-6.6,0-12,5.4-12,12v6.2c0,0.9,0.7,1.4,1.4,1.4h31.1c0.6,0,1.1-0.4,1.3-0.9
			l0,0v-6.7c0-6.6-5.4-12-12-12H44.4z M49.4,43.1c-6.2,0-11.1-4.9-11.1-11.1s4.9-11.1,11.1-11.1S60.5,25.8,60.5,32
			S55.6,43.1,49.4,43.1z M49.4,21.9c-5.7,0-10.1,4.4-10.1,10.1s4.4,10.1,10.1,10.1S59.5,37.7,59.5,32S55.1,21.9,49.4,21.9z"/>
	</g>
</g>
</svg>
