<?xml version="1.0" encoding="utf-8"?>
<!-- Generator: Adobe Illustrator 19.2.0, SVG Export Plug-In . SVG Version: 6.00 Build 0)  -->
<svg version="1.1" id="Layer_1" xmlns="http://www.w3.org/2000/svg" xmlns:xlink="http://www.w3.org/1999/xlink" x="0px" y="0px"
	 width="1300px" height="1112px" viewBox="0 0 1300 1112" style="enable-background:new 0 0 1300 1112;" xml:space="preserve">
<style type="text/css">
	.st0{fill:#FFFFFF;}
</style>
<g>
	<g>
		<path class="st0" d="M270.2,468c5.2,3.4,5.9,8.3,3.4,12.2c-2.6,4-7.5,4.8-12.1,1.8c-4.8-3.1-6-8.1-3.4-12.2
			C260.8,465.7,265.7,465,270.2,468z M262.9,479.8c3.2,2.1,7.3,2.2,9.3-0.9c2-3.1,0.3-6.7-3.1-8.9c-3-1.9-7.2-2.4-9.3,0.8
			C257.6,474.1,259.5,477.7,262.9,479.8z"/>
		<path class="st0" d="M287,443.4l-3.8,5.9l5.5,3.5l4.2-6.6l1.6,1.1l-5.5,8.5l-15.1-9.8l5.3-8.2l1.6,1.1l-4,6.2l4.8,3.1l3.8-5.9
			L287,443.4z"/>
		<path class="st0" d="M305.7,429c-0.1,1-0.7,2.6-1.9,4.5c-2.8,4.3-7.5,5.7-12.5,2.5c-4.7-3.1-5.9-8.4-2.8-13c1.2-1.9,2.4-2.8,3-3.2
			l1.3,1.5c-0.8,0.5-1.8,1.4-2.6,2.6c-2.3,3.5-1.6,7.4,2.4,9.9c3.7,2.4,7.5,1.8,9.8-1.9c0.8-1.2,1.3-2.6,1.4-3.6L305.7,429z"/>
		<path class="st0" d="M311.4,404.5c5.2,3.4,5.9,8.3,3.4,12.2c-2.6,4-7.5,4.8-12.1,1.8c-4.8-3.1-6-8.1-3.4-12.2
			C302,402.2,306.9,401.6,311.4,404.5z M304,416.4c3.2,2.1,7.3,2.2,9.3-0.9c2-3.1,0.3-6.7-3.1-8.9c-3-1.9-7.2-2.4-9.3,0.8
			C298.7,410.7,300.7,414.2,304,416.4z"/>
		<path class="st0" d="M321.4,400.7c1.1-0.5,2.4-1.5,3.3-2.9c1.3-2,1-3.8-0.5-4.8c-1.4-0.9-2.7-0.6-4.9,0.9
			c-2.5,1.9-4.7,2.6-6.9,1.2c-2.4-1.5-2.8-4.6-0.9-7.6c1-1.5,2.1-2.4,2.9-2.9l1.2,1.6c-0.6,0.3-1.7,1-2.6,2.4
			c-1.3,2.1-0.6,3.6,0.4,4.3c1.4,0.9,2.7,0.4,4.9-1.1c2.6-1.9,4.7-2.4,6.9-1c2.3,1.5,3.2,4.5,0.9,8.1c-0.9,1.5-2.4,2.8-3.5,3.2
			L321.4,400.7z"/>
		<path class="st0" d="M331.7,384.7c1.1-0.5,2.4-1.5,3.3-2.9c1.3-2,1-3.8-0.5-4.8c-1.4-0.9-2.7-0.6-4.9,0.9
			c-2.5,1.9-4.7,2.6-6.9,1.2c-2.4-1.5-2.8-4.6-0.9-7.6c1-1.5,2.1-2.4,2.9-2.9l1.2,1.6c-0.6,0.3-1.7,1-2.6,2.4
			c-1.3,2.1-0.6,3.6,0.4,4.3c1.4,0.9,2.7,0.4,4.9-1.1c2.6-1.9,4.7-2.4,6.9-1c2.3,1.5,3.2,4.5,0.9,8.1c-0.9,1.5-2.4,2.8-3.5,3.2
			L331.7,384.7z"/>
		<path class="st0" d="M330.8,358.3l15.1,9.8l-1.3,2l-15.1-9.8L330.8,358.3z"/>
		<path class="st0" d="M348.8,358.5c1.1-0.5,2.4-1.5,3.3-2.9c1.3-2,1-3.8-0.5-4.8c-1.4-0.9-2.7-0.6-4.9,0.9
			c-2.5,1.9-4.7,2.6-6.9,1.2c-2.4-1.5-2.8-4.6-0.9-7.6c1-1.5,2.1-2.4,2.9-2.9l1.2,1.6c-0.6,0.3-1.7,1-2.6,2.4
			c-1.3,2.1-0.6,3.6,0.4,4.3c1.4,0.9,2.7,0.4,4.9-1.1c2.6-1.9,4.7-2.4,6.9-1c2.3,1.5,3.2,4.5,0.9,8.1c-0.9,1.5-2.4,2.8-3.5,3.2
			L348.8,358.5z"/>
		<path class="st0" d="M350.1,332.2l-3,4.6l-1.7-1.1l7.3-11.2l1.7,1.1l-3,4.6l13.5,8.7l-1.3,2L350.1,332.2z"/>
		<path class="st0" d="M370.1,315.2l-3.8,5.9l5.5,3.5l4.2-6.6l1.6,1.1l-5.5,8.5l-15.1-9.8l5.3-8.2l1.6,1.1l-4,6.2l4.8,3.1l3.8-5.9
			L370.1,315.2z"/>
		<path class="st0" d="M384.1,294.7c-2.2-1.3-4.8-2.8-6.7-4l0,0.1c1.4,1.7,2.9,3.5,4.5,5.6l5.6,7.4l-1,1.5l-8.8-2.2
			c-2.6-0.7-4.9-1.3-7-2.1l0,0c1.9,1.3,4.3,3,6.5,4.6l6.2,4.6l-1.2,1.9l-14.4-10.9l1.6-2.5l9,2.2c2.3,0.6,4.3,1.1,6.1,1.8l0-0.1
			c-1.3-1.4-2.6-3-4.1-4.9l-5.6-7.4l1.6-2.5l15.7,8.9l-1.2,1.9L384.1,294.7z"/>
		<path class="st0" d="M394,283.4l3.7,4.7l-1.3,2l-11.8-14.9l1.5-2.4l18.5,4.6l-1.4,2.1l-5.8-1.5L394,283.4z M395.7,277.5l-5.3-1.3
			c-1.2-0.3-2.2-0.7-3.3-1l0,0c0.8,0.8,1.5,1.6,2.2,2.5l3.4,4.3L395.7,277.5z"/>
	</g>
	<g>
		<path class="st0" d="M315.4,473.1c-0.1,1-0.7,2.6-1.9,4.5c-2.8,4.3-7.5,5.7-12.5,2.5c-4.7-3.1-5.9-8.4-2.8-13
			c1.2-1.9,2.4-2.8,3-3.2l1.3,1.5c-0.8,0.5-1.8,1.4-2.6,2.6c-2.3,3.5-1.6,7.4,2.4,9.9c3.7,2.4,7.5,1.8,9.8-1.9
			c0.8-1.2,1.3-2.6,1.4-3.6L315.4,473.1z"/>
		<path class="st0" d="M321,448.6c5.2,3.4,5.9,8.3,3.4,12.2c-2.6,4-7.5,4.8-12.1,1.8c-4.8-3.1-6-8.1-3.4-12.2
			C311.6,446.3,316.5,445.7,321,448.6z M313.6,460.5c3.2,2.1,7.3,2.2,9.3-0.9c2-3.1,0.3-6.7-3.1-8.9c-3-1.9-7.2-2.4-9.3,0.8
			C308.4,454.8,310.3,458.3,313.6,460.5z"/>
		<path class="st0" d="M335.2,429.1c-2.2-1.3-4.8-2.8-6.7-4l0,0.1c1.4,1.7,2.9,3.5,4.5,5.6l5.6,7.4l-1,1.5l-8.8-2.2
			c-2.6-0.7-4.9-1.3-7-2.1l0,0c1.9,1.3,4.3,3,6.5,4.6l6.2,4.6l-1.2,1.9l-14.4-10.9l1.6-2.5l9,2.2c2.3,0.6,4.3,1.1,6.1,1.8l0-0.1
			c-1.3-1.4-2.6-3-4.1-4.9l-5.6-7.4l1.6-2.5l15.7,8.9l-1.2,1.9L335.2,429.1z"/>
		<path class="st0" d="M349.1,405.3c5.2,3.4,5.9,8.3,3.4,12.2c-2.6,4-7.5,4.8-12.1,1.8c-4.8-3.1-6-8.1-3.4-12.2
			C339.7,403,344.6,402.3,349.1,405.3z M341.7,417.1c3.2,2.1,7.3,2.2,9.3-0.9c2-3.1,0.3-6.7-3.1-8.9c-3-1.9-7.2-2.4-9.3,0.8
			C336.5,411.4,338.4,415,341.7,417.1z"/>
		<path class="st0" d="M352.8,383.3l5.3-8.1l1.6,1.1l-4,6.2l5,3.3l3.7-5.7l1.6,1l-3.7,5.7l6.8,4.4l-1.3,2L352.8,383.3z"/>
		<path class="st0" d="M364.3,365.5l15.1,9.8l-1.3,2l-15.1-9.8L364.3,365.5z"/>
		<path class="st0" d="M385.5,349.1c5.2,3.4,5.9,8.3,3.4,12.2c-2.6,4-7.5,4.8-12.1,1.8c-4.8-3.1-6-8.1-3.4-12.2
			C376.1,346.8,381,346.2,385.5,349.1z M378.1,361c3.2,2.1,7.3,2.2,9.2-0.9c2-3.1,0.3-6.7-3.1-8.9c-3-1.9-7.2-2.4-9.3,0.8
			C372.9,355.3,374.8,358.8,378.1,361z"/>
		<path class="st0" d="M410.7,326.1c-0.1,1-0.7,2.6-1.9,4.5c-2.8,4.3-7.5,5.7-12.5,2.5c-4.7-3.1-5.9-8.4-2.8-13
			c1.2-1.9,2.4-2.8,3-3.2l1.3,1.5c-0.8,0.5-1.8,1.4-2.6,2.6c-2.3,3.5-1.6,7.4,2.4,9.9c3.7,2.4,7.5,1.8,9.8-1.9
			c0.8-1.2,1.3-2.6,1.4-3.6L410.7,326.1z"/>
		<path class="st0" d="M416.3,301.5c5.2,3.4,5.9,8.3,3.4,12.2c-2.6,4-7.5,4.8-12.1,1.8c-4.8-3.1-6-8.1-3.4-12.2
			C406.9,299.3,411.8,298.6,416.3,301.5z M408.9,313.4c3.2,2.1,7.3,2.2,9.3-0.9c2-3.1,0.3-6.7-3.1-8.9c-3-1.9-7.2-2.4-9.3,0.8
			C403.7,307.7,405.6,311.3,408.9,313.4z"/>
		<path class="st0" d="M428.9,299.1l-15.1-9.8l1.4-2.1l10.8,0.1c2.5,0,4.7,0.2,6.7,0.5l0-0.1c-2.1-1.1-4-2.3-6.4-3.8l-6.3-4.1
			l1.2-1.8l15.1,9.8l-1.3,2l-10.8-0.2c-2.4,0-4.7-0.1-6.9-0.4l0,0.1c2,1.1,3.8,2.3,6.3,3.9l6.5,4.2L428.9,299.1z"/>
		<path class="st0" d="M426.7,269.8c0.6-1.3,1.4-2.8,2.4-4.4c1.8-2.8,3.8-4.4,5.9-4.9c2.1-0.5,4.4-0.2,6.8,1.4c2.5,1.6,4,3.7,4.5,6
			c0.5,2.3-0.3,5.2-2.2,8.1c-0.9,1.4-1.7,2.5-2.5,3.4L426.7,269.8z M441.3,276.5c0.4-0.4,0.9-1.1,1.4-1.9c2.7-4.2,1.8-8-2.2-10.6
			c-3.6-2.3-7.1-1.8-9.8,2.3c-0.7,1-1.1,1.8-1.3,2.4L441.3,276.5z"/>
		<path class="st0" d="M440.6,247.8l9,5.8c3.4,2.2,5.8,1.6,7.1-0.4c1.5-2.2,0.9-4.6-2.4-6.8l-9-5.8l1.3-2l8.8,5.7
			c4.6,3,5,6.7,2.8,10c-2,3.1-5.3,4.3-10,1.2l-8.9-5.8L440.6,247.8z"/>
		<path class="st0" d="M455.5,228.5l-3,4.6l-1.7-1.1l7.3-11.2l1.7,1.1l-3,4.6l13.5,8.7l-1.3,2L455.5,228.5z"/>
		<path class="st0" d="M477.8,206.7c5.2,3.4,5.9,8.3,3.4,12.2c-2.6,4-7.5,4.8-12.1,1.8c-4.8-3.1-6-8.1-3.4-12.2
			C468.4,204.4,473.3,203.8,477.8,206.7z M470.4,218.6c3.2,2.1,7.3,2.2,9.3-0.9c2-3.1,0.3-6.7-3.1-8.9c-3-1.9-7.2-2.4-9.3,0.8
			C465.2,212.9,467.1,216.5,470.4,218.6z"/>
		<path class="st0" d="M475.4,194.6c0.4-1.1,1.2-2.6,2.1-3.9c1.4-2.1,2.6-3.2,4.1-3.6c1.2-0.3,2.5-0.1,3.6,0.7c2,1.3,2.5,3.4,2,5.4
			l0.1,0c1.2-0.9,2.7-0.9,4.5-0.2c2.4,0.9,4.1,1.5,4.9,1.5l-1.3,2c-0.6,0-2.1-0.5-4.3-1.3c-2.4-0.9-3.7-0.6-4.9,1.1l-1.2,1.8
			l6.6,4.2l-1.3,2L475.4,194.6z M483.6,197.1l1.3-2c1.4-2.1,1.1-4.2-0.7-5.3c-2-1.3-3.7-0.4-5.1,1.6c-0.6,0.9-1,1.7-1.1,2
			L483.6,197.1z"/>
	</g>
	<g>
		<path class="st0" d="M86.9,468.8c-2.2-1.3-4.8-2.8-6.7-4l0,0.1c1.4,1.7,2.9,3.5,4.5,5.6l5.6,7.4l-1,1.5l-8.8-2.2
			c-2.6-0.7-4.9-1.3-7-2.1l0,0c1.9,1.3,4.3,3,6.5,4.6l6.2,4.6l-1.2,1.9l-14.4-10.9l1.6-2.5l9,2.2c2.3,0.6,4.3,1.1,6.1,1.8l0-0.1
			c-1.3-1.4-2.6-3-4.1-4.9l-5.6-7.4l1.6-2.5l15.7,8.9l-1.2,1.9L86.9,468.8z"/>
		<path class="st0" d="M96.9,457.6l3.7,4.7l-1.3,2l-11.8-14.9L89,447l18.5,4.6l-1.4,2.1l-5.8-1.5L96.9,457.6z M98.6,451.7l-5.3-1.3
			c-1.2-0.3-2.2-0.7-3.3-1l0,0c0.8,0.8,1.5,1.6,2.2,2.5l3.4,4.3L98.6,451.7z"/>
		<path class="st0" d="M109.6,443.2c1.1-0.5,2.4-1.5,3.3-2.9c1.3-2,1-3.8-0.5-4.8c-1.4-0.9-2.7-0.6-4.9,0.9
			c-2.5,1.9-4.7,2.6-6.9,1.2c-2.4-1.5-2.8-4.6-0.9-7.6c1-1.5,2.1-2.4,2.9-2.9l1.2,1.6c-0.6,0.3-1.7,1-2.6,2.4
			c-1.3,2.1-0.6,3.6,0.4,4.3c1.4,0.9,2.7,0.4,4.9-1.1c2.6-1.9,4.7-2.4,6.9-1c2.3,1.5,3.2,4.5,0.9,8.1c-0.9,1.5-2.4,2.8-3.5,3.2
			L109.6,443.2z"/>
		<path class="st0" d="M110.9,416.9l-3,4.6l-1.7-1.1l7.3-11.2l1.7,1.1l-3,4.6l13.5,8.7l-1.3,2L110.9,416.9z"/>
		<path class="st0" d="M130.9,400l-3.8,5.9l5.5,3.5l4.2-6.6l1.6,1.1l-5.5,8.5l-15.1-9.8l5.3-8.2l1.6,1.1l-4,6.2l4.8,3.1l3.8-5.9
			L130.9,400z"/>
		<path class="st0" d="M128.3,386.8c0.4-1.1,1.2-2.6,2.1-3.9c1.4-2.1,2.6-3.2,4.1-3.6c1.2-0.3,2.5-0.1,3.6,0.7c2,1.3,2.5,3.4,2,5.4
			l0.1,0c1.2-0.9,2.7-0.9,4.5-0.2c2.4,0.9,4.1,1.5,4.9,1.5l-1.3,2c-0.6,0-2.1-0.5-4.3-1.3c-2.4-0.9-3.7-0.6-4.9,1.1l-1.2,1.8
			l6.6,4.2l-1.3,2L128.3,386.8z M136.5,389.3l1.3-2c1.4-2.1,1.1-4.2-0.7-5.3c-2-1.3-3.7-0.4-5.1,1.6c-0.6,0.9-1,1.7-1.1,2
			L136.5,389.3z"/>
		<path class="st0" d="M142.8,367.7l-3,4.6l-1.7-1.1l7.3-11.2l1.7,1.1l-3,4.6l13.5,8.7l-1.3,2L142.8,367.7z"/>
		<path class="st0" d="M162.8,350.8l-3.8,5.9l5.5,3.5l4.2-6.6l1.6,1.1l-5.5,8.5l-15.1-9.8l5.3-8.2l1.6,1.1l-4,6.2l4.8,3.1l3.8-5.9
			L162.8,350.8z"/>
		<path class="st0" d="M181.5,336.4c-0.1,1-0.7,2.6-1.9,4.5c-2.8,4.3-7.5,5.7-12.5,2.5c-4.7-3.1-5.9-8.4-2.8-13
			c1.2-1.9,2.4-2.8,3-3.2l1.3,1.5c-0.8,0.5-1.8,1.4-2.6,2.6c-2.3,3.5-1.6,7.4,2.4,9.9c3.7,2.4,7.5,1.8,9.8-1.9
			c0.8-1.2,1.3-2.6,1.4-3.6L181.5,336.4z"/>
		<path class="st0" d="M172.9,317.6l6.3,4.1l4.7-7.3l-6.3-4.1l1.3-2l15.1,9.8l-1.3,2l-7.1-4.6l-4.7,7.3l7.1,4.6l-1.3,2l-15.1-9.8
			L172.9,317.6z"/>
		<path class="st0" d="M212.1,289.2c-0.1,1-0.7,2.6-1.9,4.5c-2.8,4.3-7.5,5.7-12.5,2.5c-4.7-3.1-5.9-8.4-2.8-13
			c1.2-1.9,2.4-2.8,3-3.2l1.3,1.5c-0.8,0.5-1.8,1.4-2.6,2.6c-2.3,3.5-1.6,7.4,2.4,9.9c3.7,2.4,7.5,1.8,9.8-1.9
			c0.8-1.2,1.3-2.6,1.4-3.6L212.1,289.2z"/>
		<path class="st0" d="M217.7,264.7c5.2,3.4,5.9,8.3,3.4,12.2c-2.6,4-7.5,4.8-12.1,1.8c-4.8-3.1-6-8.1-3.4-12.2
			C208.3,262.4,213.2,261.8,217.7,264.7z M210.4,276.6c3.2,2.1,7.3,2.2,9.2-0.9c2-3.1,0.3-6.7-3.1-8.9c-3-1.9-7.2-2.4-9.3,0.8
			C205.1,270.9,207,274.4,210.4,276.6z"/>
		<path class="st0" d="M231.9,245.2c-2.2-1.3-4.8-2.8-6.7-4l0,0.1c1.4,1.7,2.9,3.5,4.5,5.6l5.6,7.4l-1,1.5l-8.8-2.2
			c-2.6-0.7-4.9-1.3-7-2.1l0,0c1.9,1.3,4.3,3,6.5,4.6l6.2,4.6l-1.2,1.9l-14.4-10.9l1.6-2.5l9,2.2c2.3,0.6,4.3,1.1,6.1,1.8l0-0.1
			c-1.3-1.4-2.6-3-4.1-4.9l-5.6-7.4l1.6-2.5l15.7,8.9l-1.2,1.9L231.9,245.2z"/>
		<path class="st0" d="M245.8,221.4c5.2,3.4,5.9,8.3,3.4,12.2c-2.6,4-7.5,4.8-12.1,1.8c-4.8-3.1-6-8.1-3.4-12.2
			C236.4,219.1,241.3,218.5,245.8,221.4z M238.4,233.3c3.2,2.1,7.3,2.2,9.2-0.9c2-3.1,0.3-6.7-3.1-8.9c-3-1.9-7.2-2.4-9.3,0.8
			C233.2,227.6,235.1,231.1,238.4,233.3z"/>
		<path class="st0" d="M250.8,197.5l6.3,4.1l4.7-7.3l-6.3-4.1l1.3-2l15.1,9.8l-1.3,2l-7.1-4.6l-4.7,7.3l7.1,4.6l-1.3,2l-15.1-9.8
			L250.8,197.5z"/>
		<path class="st0" d="M263.4,178l9,5.8c3.4,2.2,5.8,1.6,7.1-0.4c1.5-2.2,0.9-4.6-2.4-6.8l-9-5.8l1.3-2l8.8,5.7c4.6,3,5,6.7,2.8,10
			c-2,3.1-5.3,4.3-10,1.2l-8.9-5.8L263.4,178z"/>
		<path class="st0" d="M275,160.6c0.4-1,1.1-2.4,2-3.8c1.3-2,2.4-3,3.8-3.4c1.1-0.4,2.3-0.3,3.5,0.5c1.5,0.9,2.1,2.7,1.7,4.7l0,0
			c1.3-1.2,3.6-2.1,5.8-0.7c1.3,0.8,2,2,2.2,3.2c0.3,1.7-0.4,3.7-2,6.1c-0.9,1.3-1.6,2.3-2.1,2.9L275,160.6z M282.4,162.7l1.1-1.8
			c1.3-2.1,1-4-0.4-4.9c-1.8-1.1-3.3-0.3-4.6,1.7c-0.6,0.9-0.8,1.5-1,1.8L282.4,162.7z M289.7,167.3c0.3-0.3,0.7-0.9,1.2-1.6
			c1.3-2,1.8-4.4-0.4-5.8c-2.1-1.3-4.1-0.1-5.4,2l-1,1.6L289.7,167.3z"/>
	</g>
	<g>
		<path class="st0" d="M444.6,474.1l9,5.8c3.4,2.2,5.8,1.6,7.1-0.4c1.5-2.2,0.9-4.6-2.4-6.8l-9-5.8l1.3-2l8.8,5.7
			c4.6,3,5,6.7,2.8,10c-2,3.1-5.3,4.3-10,1.2l-8.9-5.8L444.6,474.1z"/>
		<path class="st0" d="M472.6,449.4c-2.2-1.3-4.8-2.8-6.7-4l0,0.1c1.4,1.7,2.9,3.5,4.5,5.6l5.6,7.4l-1,1.5l-8.8-2.2
			c-2.6-0.7-4.9-1.3-7-2.1l0,0c1.9,1.3,4.3,3,6.5,4.6l6.2,4.6l-1.2,1.9L456.3,456l1.6-2.5l9,2.2c2.3,0.6,4.3,1.1,6.1,1.8l0-0.1
			c-1.3-1.4-2.6-3-4.1-4.9l-5.6-7.4l1.6-2.5l15.7,8.9l-1.2,1.9L472.6,449.4z"/>
		<path class="st0" d="M490.1,421.4l-3.8,5.9l5.5,3.5l4.2-6.6l1.6,1.1l-5.5,8.5L477,424l5.3-8.2l1.6,1.1l-4,6.2l4.8,3.1l3.8-5.9
			L490.1,421.4z"/>
		<path class="st0" d="M502.5,417.8l-15.1-9.8l1.4-2.1l10.8,0.1c2.5,0,4.7,0.2,6.7,0.5l0-0.1c-2.1-1.1-4-2.3-6.4-3.8l-6.3-4.1
			l1.2-1.8l15.1,9.8l-1.3,2l-10.8-0.2c-2.4,0-4.7-0.1-6.9-0.4l0,0.1c2,1.1,3.8,2.3,6.3,3.9l6.5,4.2L502.5,417.8z"/>
		<path class="st0" d="M521.6,387.3c-0.1,1-0.7,2.6-1.9,4.5c-2.8,4.3-7.5,5.7-12.5,2.5c-4.7-3.1-5.9-8.4-2.8-13
			c1.2-1.9,2.4-2.8,3-3.2l1.3,1.5c-0.8,0.5-1.8,1.4-2.6,2.6c-2.3,3.5-1.6,7.4,2.4,9.9c3.7,2.4,7.5,1.8,9.8-1.9
			c0.8-1.2,1.3-2.6,1.4-3.6L521.6,387.3z"/>
		<path class="st0" d="M527.3,362.8c5.2,3.4,5.9,8.3,3.4,12.2c-2.6,4-7.5,4.8-12.1,1.8c-4.8-3.1-6-8.1-3.4-12.2
			C517.9,360.5,522.8,359.9,527.3,362.8z M519.9,374.7c3.2,2.1,7.3,2.2,9.2-0.9c2-3.1,0.3-6.7-3.1-8.9c-3-1.9-7.2-2.4-9.3,0.8
			C514.6,369,516.6,372.5,519.9,374.7z"/>
		<path class="st0" d="M539.8,360.3l-15.1-9.8l1.4-2.1l10.8,0.1c2.5,0,4.7,0.2,6.7,0.5l0-0.1c-2.1-1.1-4-2.3-6.4-3.8l-6.3-4.1
			l1.2-1.8l15.1,9.8l-1.3,2l-10.8-0.2c-2.4,0-4.7-0.1-6.9-0.4l0,0.1c2,1.1,3.8,2.3,6.3,3.9l6.5,4.2L539.8,360.3z"/>
		<path class="st0" d="M541,329.1l-3,4.6l-1.7-1.1l7.3-11.2l1.7,1.1l-3,4.6l13.5,8.7l-1.3,2L541,329.1z"/>
		<path class="st0" d="M548,314.9c0.4-1.1,1.2-2.6,2.1-3.9c1.4-2.1,2.6-3.2,4.1-3.6c1.2-0.3,2.5-0.1,3.6,0.7c2,1.3,2.5,3.4,2,5.4
			l0.1,0c1.2-0.9,2.7-0.9,4.5-0.2c2.4,0.9,4.1,1.5,4.9,1.5l-1.3,2c-0.6,0-2.1-0.5-4.3-1.3c-2.4-0.9-3.7-0.6-4.9,1.1l-1.2,1.8
			l6.6,4.2l-1.3,2L548,314.9z M556.2,317.4l1.3-2c1.4-2.1,1.1-4.2-0.7-5.3c-2-1.3-3.7-0.4-5.1,1.6c-0.6,0.9-1,1.7-1.1,2L556.2,317.4
			z"/>
		<path class="st0" d="M574.7,289.6c5.2,3.4,5.9,8.3,3.4,12.2c-2.6,4-7.5,4.8-12.1,1.8c-4.8-3.1-6-8.1-3.4-12.2
			C565.3,287.3,570.2,286.7,574.7,289.6z M567.3,301.5c3.2,2.1,7.3,2.2,9.2-0.9c2-3.1,0.3-6.7-3.1-8.9c-3-1.9-7.2-2.4-9.3,0.8
			C562.1,295.8,564,299.4,567.3,301.5z"/>
		<path class="st0" d="M578.5,267.8c0.5-1,1.1-2.4,2.1-3.9c1.2-1.9,2.6-3.1,4-3.4c1.3-0.4,2.7-0.1,4,0.7c1.4,0.9,2.2,2,2.5,3.3
			c0.4,1.7-0.1,3.8-1.3,5.7c-0.4,0.6-0.7,1.1-1.2,1.5l6.1,3.9l-1.3,2L578.5,267.8z M587.1,270.6c0.4-0.4,0.8-0.9,1.2-1.5
			c1.5-2.4,1.3-4.5-0.8-5.9c-2-1.3-3.9-0.5-5.3,1.6c-0.6,0.9-0.9,1.5-1,1.9L587.1,270.6z"/>
		<path class="st0" d="M605.1,242.7c5.2,3.4,5.9,8.3,3.4,12.2c-2.6,4-7.5,4.8-12.1,1.8c-4.8-3.1-6-8.1-3.4-12.2
			C595.7,240.4,600.6,239.8,605.1,242.7z M597.7,254.6c3.2,2.1,7.3,2.2,9.3-0.9c2-3.1,0.3-6.7-3.1-8.9c-3-1.9-7.2-2.4-9.3,0.8
			C592.4,248.9,594.4,252.5,597.7,254.6z"/>
		<path class="st0" d="M602.7,230.6c0.4-1.1,1.2-2.6,2.1-3.9c1.4-2.1,2.6-3.2,4.1-3.6c1.2-0.3,2.5-0.1,3.6,0.7c2,1.3,2.5,3.4,2,5.4
			l0.1,0c1.2-0.9,2.7-0.9,4.5-0.2c2.4,0.9,4.1,1.5,4.9,1.5l-1.3,2c-0.6,0-2.1-0.5-4.3-1.3c-2.4-0.9-3.7-0.6-4.9,1.1l-1.2,1.8
			l6.5,4.2l-1.3,2L602.7,230.6z M610.8,233.1l1.3-2c1.4-2.1,1.1-4.2-0.7-5.3c-2-1.3-3.7-0.4-5.1,1.6c-0.6,0.9-1,1.7-1.1,2
			L610.8,233.1z"/>
		<path class="st0" d="M636.5,196.6c-2.2-1.3-4.8-2.8-6.7-4l0,0.1c1.4,1.7,2.9,3.5,4.5,5.6l5.6,7.4l-1,1.5l-8.8-2.2
			c-2.6-0.7-4.9-1.3-7-2.1l0,0c1.9,1.3,4.3,3,6.5,4.6l6.2,4.6l-1.2,1.9l-14.4-10.9l1.6-2.5l9,2.2c2.3,0.6,4.3,1.1,6.1,1.8l0-0.1
			c-1.3-1.4-2.6-3-4.1-4.9l-5.6-7.4l1.6-2.5l15.7,8.9l-1.2,1.9L636.5,196.6z"/>
	</g>
	<g>
		<path class="st0" d="M634.6,173.6l4.1-0.7l-1.1,1.7l-2.5,0.4l0,0l0.6,2.4l-1,1.6l-1.1-4L634.6,173.6z M647.9,178l-3.8,5.9l5.5,3.5
			l4.2-6.6l1.6,1.1l-5.5,8.5l-15.1-9.8l5.3-8.2l1.6,1.1l-4,6.2l4.8,3.1l3.8-5.9L647.9,178z"/>
	</g>
	<g>
		<path class="st0" d="M657.8,173.1c1.1-0.5,2.4-1.5,3.3-2.9c1.3-2,1-3.8-0.5-4.8c-1.4-0.9-2.7-0.6-4.9,0.9
			c-2.5,1.9-4.7,2.6-6.9,1.2c-2.4-1.5-2.8-4.6-0.9-7.6c1-1.5,2.1-2.4,2.9-2.9l1.2,1.6c-0.6,0.3-1.7,1-2.6,2.4
			c-1.3,2.1-0.6,3.6,0.4,4.3c1.4,0.9,2.7,0.4,4.9-1.1c2.6-1.9,4.7-2.4,6.9-1c2.3,1.5,3.2,4.5,0.9,8.1c-0.9,1.5-2.4,2.8-3.5,3.2
			L657.8,173.1z"/>
	</g>
	<g>
		<path class="st0" d="M628,476.2c0.5-1,1.1-2.4,2.1-3.9c1.3-1.9,2.6-3.1,4-3.4c1.3-0.4,2.7-0.1,4,0.7c1.4,0.9,2.2,2,2.5,3.3
			c0.4,1.7-0.1,3.8-1.3,5.7c-0.4,0.6-0.7,1.1-1.2,1.5l6.1,3.9l-1.3,2L628,476.2z M636.5,479c0.4-0.4,0.8-0.9,1.2-1.5
			c1.5-2.4,1.3-4.5-0.8-5.9c-2-1.3-3.9-0.5-5.3,1.6c-0.6,0.9-0.9,1.5-1,1.9L636.5,479z"/>
		<path class="st0" d="M638.9,459.4c0.4-1.1,1.2-2.6,2.1-3.9c1.4-2.1,2.6-3.2,4.1-3.6c1.2-0.3,2.5-0.1,3.6,0.7c2,1.3,2.5,3.4,2,5.4
			l0.1,0c1.2-0.9,2.7-0.9,4.5-0.2c2.4,0.9,4.1,1.5,4.9,1.5l-1.3,2c-0.6,0-2.1-0.5-4.3-1.3c-2.4-0.9-3.7-0.6-4.9,1.1l-1.2,1.8
			l6.6,4.2l-1.3,2L638.9,459.4z M647.1,461.9l1.3-2c1.4-2.1,1.1-4.2-0.7-5.3c-2-1.3-3.7-0.4-5.1,1.6c-0.6,0.9-1,1.7-1.1,2
			L647.1,461.9z"/>
		<path class="st0" d="M662.9,439.6l-3.8,5.9l5.5,3.5l4.2-6.6l1.6,1.1l-5.5,8.5l-15.1-9.8l5.3-8.2l1.6,1.1l-4,6.2l4.8,3.1l3.8-5.9
			L662.9,439.6z"/>
		<path class="st0" d="M672.6,434.8c1.1-0.5,2.4-1.5,3.3-2.9c1.3-2,1-3.8-0.5-4.8c-1.4-0.9-2.7-0.6-4.9,0.9
			c-2.5,1.9-4.7,2.6-6.9,1.2c-2.4-1.5-2.8-4.6-0.9-7.6c1-1.5,2.1-2.4,2.9-2.9l1.2,1.6c-0.6,0.3-1.7,1-2.6,2.4
			c-1.3,2.1-0.6,3.6,0.4,4.3c1.4,0.9,2.7,0.4,4.9-1.1c2.6-1.9,4.7-2.4,6.9-1c2.3,1.5,3.2,4.5,0.9,8.1c-0.9,1.5-2.4,2.8-3.5,3.2
			L672.6,434.8z"/>
		<path class="st0" d="M683,418.8c1.1-0.5,2.4-1.5,3.3-2.9c1.3-2,1-3.8-0.5-4.8c-1.4-0.9-2.7-0.6-4.9,0.9c-2.5,1.9-4.7,2.6-6.9,1.2
			c-2.4-1.5-2.8-4.6-0.9-7.6c1-1.5,2.1-2.4,2.9-2.9l1.2,1.6c-0.6,0.3-1.7,1-2.6,2.4c-1.3,2.1-0.6,3.6,0.4,4.3
			c1.4,0.9,2.7,0.4,4.9-1.1c2.6-1.9,4.7-2.4,6.9-1c2.3,1.5,3.2,4.5,0.9,8.1c-0.9,1.5-2.4,2.8-3.5,3.2L683,418.8z"/>
		<path class="st0" d="M687.3,384.7c0.4-1.1,1.2-2.6,2.1-3.9c1.4-2.1,2.6-3.2,4.1-3.6c1.2-0.3,2.5-0.1,3.6,0.7c2,1.3,2.5,3.4,2,5.4
			l0.1,0c1.2-0.9,2.7-0.9,4.5-0.2c2.4,0.9,4.1,1.5,4.9,1.5l-1.3,2c-0.6,0-2.1-0.5-4.3-1.3c-2.4-0.9-3.7-0.6-4.9,1.1l-1.2,1.8
			l6.6,4.2l-1.3,2L687.3,384.7z M695.4,387.3l1.3-2c1.4-2.1,1.1-4.2-0.7-5.3c-2-1.3-3.7-0.4-5.1,1.6c-0.6,0.9-1,1.7-1.1,2
			L695.4,387.3z"/>
		<path class="st0" d="M711.2,365l-3.8,5.9l5.5,3.5l4.2-6.6l1.6,1.1l-5.5,8.5l-15.1-9.8l5.3-8.2l1.6,1.1l-4,6.2l4.8,3.1l3.8-5.9
			L711.2,365z"/>
		<path class="st0" d="M708.4,351.7l1.3-2l13.5,8.7l4.2-6.5l1.6,1.1l-5.5,8.4L708.4,351.7z"/>
		<path class="st0" d="M731.6,333.5l-3.8,5.9l5.5,3.5l4.2-6.6l1.6,1.1l-5.5,8.5l-15.1-9.8l5.3-8.2l1.6,1.1l-4,6.2l4.8,3.1l3.8-5.9
			L731.6,333.5z"/>
		<path class="st0" d="M740.8,324.5l3.7,4.7l-1.3,2l-11.8-14.9l1.5-2.4l18.5,4.6l-1.4,2.1l-5.8-1.5L740.8,324.5z M742.5,318.5
			l-5.3-1.3c-1.2-0.3-2.2-0.7-3.3-1l0,0c0.8,0.8,1.5,1.6,2.2,2.5l3.4,4.3L742.5,318.5z"/>
		<path class="st0" d="M753.5,310.1c1.1-0.5,2.4-1.5,3.3-2.9c1.3-2,1-3.8-0.5-4.8c-1.4-0.9-2.7-0.6-4.9,0.9
			c-2.5,1.9-4.7,2.6-6.9,1.2c-2.4-1.5-2.8-4.6-0.9-7.6c1-1.5,2.1-2.4,2.9-2.9l1.2,1.6c-0.6,0.3-1.7,1-2.6,2.4
			c-1.3,2.1-0.6,3.6,0.4,4.3c1.4,0.9,2.7,0.4,4.9-1.1c2.6-1.9,4.7-2.4,6.9-1c2.3,1.5,3.2,4.5,0.9,8.1c-0.9,1.5-2.4,2.8-3.5,3.2
			L753.5,310.1z"/>
		<path class="st0" d="M764.4,282.9l-3.8,5.9l5.5,3.5l4.2-6.6l1.6,1.1l-5.5,8.5l-15.1-9.8l5.3-8.2l1.6,1.1l-4,6.2l4.8,3.1l3.8-5.9
			L764.4,282.9z"/>
		<path class="st0" d="M768.1,260.1c0.6-1.3,1.4-2.8,2.4-4.4c1.8-2.8,3.8-4.4,5.9-4.9c2.1-0.5,4.4-0.2,6.8,1.4c2.5,1.6,4,3.7,4.5,6
			c0.5,2.3-0.3,5.2-2.2,8.1c-0.9,1.4-1.7,2.5-2.5,3.4L768.1,260.1z M782.7,266.8c0.4-0.4,0.9-1.1,1.4-1.9c2.7-4.2,1.8-8-2.2-10.6
			c-3.6-2.3-7.1-1.8-9.8,2.3c-0.7,1-1.1,1.8-1.3,2.4L782.7,266.8z"/>
		<path class="st0" d="M792.5,244.7l3.7,4.7l-1.3,2l-11.8-14.9l1.5-2.4l18.5,4.6l-1.4,2.1l-5.8-1.5L792.5,244.7z M794.2,238.7
			l-5.3-1.3c-1.2-0.3-2.2-0.7-3.3-1l0,0c0.8,0.8,1.5,1.6,2.2,2.5l3.4,4.3L794.2,238.7z"/>
		<path class="st0" d="M800.2,210.1l15.1,9.8l-1.3,2l-15.1-9.8L800.2,210.1z"/>
		<path class="st0" d="M820.7,211.6l-15.1-9.8l1.4-2.1l10.8,0.1c2.5,0,4.7,0.2,6.7,0.5l0-0.1c-2.1-1.1-4-2.3-6.4-3.8l-6.3-4.1
			l1.2-1.8l15.1,9.8l-1.3,2L816,202c-2.4,0-4.7-0.1-6.9-0.4l0,0.1c2,1.1,3.8,2.3,6.3,3.9l6.5,4.2L820.7,211.6z"/>
		<path class="st0" d="M819.6,180.2l15.1,9.8l-1.3,2l-15.1-9.8L819.6,180.2z"/>
		<path class="st0" d="M846.5,170.8c-0.1,1-0.7,2.6-1.9,4.5c-2.8,4.3-7.5,5.7-12.5,2.5c-4.7-3.1-5.9-8.4-2.8-13
			c1.2-1.9,2.4-2.8,3-3.2l1.3,1.5c-0.8,0.5-1.8,1.4-2.6,2.6c-2.3,3.5-1.6,7.4,2.4,9.9c3.7,2.4,7.5,1.8,9.8-1.9
			c0.8-1.2,1.3-2.6,1.4-3.6L846.5,170.8z"/>
		<path class="st0" d="M837.9,152l15.1,9.8l-1.3,2l-15.1-9.8L837.9,152z"/>
		<path class="st0" d="M855.3,147.9l3.7,4.7l-1.3,2l-11.8-14.9l1.5-2.4l18.5,4.6l-1.4,2.1l-5.8-1.5L855.3,147.9z M857,141.9
			l-5.3-1.3c-1.2-0.3-2.2-0.7-3.3-1l0,0c0.8,0.8,1.5,1.6,2.2,2.5l3.4,4.3L857,141.9z"/>
		<path class="st0" d="M857.8,124.9l-3,4.6l-1.7-1.1l7.3-11.2l1.7,1.1l-3,4.6l13.5,8.7l-1.3,2L857.8,124.9z"/>
		<path class="st0" d="M866,108.6l15.1,9.8l-1.3,2l-15.1-9.8L866,108.6z"/>
		<path class="st0" d="M888.7,106.8l-18.3-4.9l1.4-2.1l9,2.5c2.5,0.7,4.7,1.3,6.7,2l0,0c-1.5-1.6-3-3.4-4.5-5.4l-5.8-7.4l1.4-2.1
			l11.6,15.2L888.7,106.8z"/>
		<path class="st0" d="M893.8,88.4l3.7,4.7l-1.3,2l-11.8-14.9l1.5-2.4l18.5,4.6l-1.4,2.1l-5.8-1.5L893.8,88.4z M895.5,82.5l-5.3-1.3
			c-1.2-0.3-2.2-0.7-3.3-1l0,0c0.8,0.8,1.5,1.6,2.2,2.5l3.4,4.3L895.5,82.5z"/>
	</g>
	<g>
		<path class="st0" d="M817.6,474.1l15.1,9.8l-1.3,2l-15.1-9.8L817.6,474.1z"/>
		<path class="st0" d="M838.1,475.6l-15.1-9.8l1.4-2.1l10.8,0.1c2.5,0,4.7,0.2,6.7,0.5l0-0.1c-2.1-1.1-4-2.3-6.4-3.8l-6.3-4.1
			l1.2-1.8l15.1,9.8l-1.3,2l-10.8-0.2c-2.4,0-4.7-0.1-6.9-0.4l0,0.1c2,1.1,3.8,2.3,6.3,3.9l6.5,4.2L838.1,475.6z"/>
		<path class="st0" d="M857.2,445c-0.1,1-0.7,2.6-1.9,4.5c-2.8,4.3-7.5,5.7-12.5,2.5c-4.7-3.1-5.9-8.4-2.8-13c1.2-1.9,2.4-2.8,3-3.2
			l1.3,1.5c-0.8,0.5-1.8,1.4-2.6,2.6c-2.3,3.5-1.6,7.4,2.4,9.9c3.7,2.4,7.5,1.8,9.8-1.9c0.8-1.2,1.3-2.6,1.4-3.6L857.2,445z"/>
		<path class="st0" d="M860.5,425.6l-3.8,5.9l5.5,3.5l4.2-6.6l1.6,1.1l-5.5,8.5l-15.1-9.8l5.3-8.2l1.6,1.1l-4,6.2l4.8,3.1l3.8-5.9
			L860.5,425.6z"/>
		<path class="st0" d="M857.9,412.3c0.5-1,1.1-2.4,2.1-3.9c1.2-1.9,2.6-3.1,4-3.4c1.3-0.4,2.7-0.1,4,0.7c1.4,0.9,2.2,2,2.5,3.3
			c0.4,1.7-0.1,3.8-1.3,5.7c-0.4,0.6-0.7,1.1-1.2,1.5l6.1,3.9l-1.3,2L857.9,412.3z M866.4,415.1c0.4-0.4,0.8-0.9,1.2-1.5
			c1.5-2.4,1.3-4.5-0.8-5.9c-2-1.3-3.9-0.5-5.3,1.6c-0.6,0.9-0.9,1.5-1,1.9L866.4,415.1z"/>
		<path class="st0" d="M872.1,393.6l-3,4.6l-1.7-1.1l7.3-11.2l1.7,1.1l-3,4.6l13.5,8.7l-1.3,2L872.1,393.6z"/>
		<path class="st0" d="M880.3,377.3l15.1,9.8l-1.3,2l-15.1-9.8L880.3,377.3z"/>
		<path class="st0" d="M901.5,360.9c5.2,3.4,5.9,8.3,3.4,12.2c-2.6,4-7.5,4.8-12.1,1.8c-4.8-3.1-6-8.1-3.4-12.2
			C892.1,358.6,897,358,901.5,360.9z M894.1,372.8c3.2,2.1,7.3,2.2,9.3-0.9c2-3.1,0.3-6.7-3.1-8.9c-3-1.9-7.2-2.4-9.3,0.8
			C888.9,367.1,890.8,370.6,894.1,372.8z"/>
		<path class="st0" d="M914,358.4l-15.1-9.8l1.4-2.1l10.8,0.1c2.5,0,4.7,0.2,6.7,0.5l0-0.1c-2.1-1.1-4-2.3-6.4-3.8l-6.3-4.1l1.2-1.8
			l15.1,9.8l-1.3,2l-10.8-0.2c-2.4,0-4.7-0.1-6.9-0.4l0,0.1c2,1.1,3.8,2.3,6.3,3.9l6.5,4.2L914,358.4z"/>
		<path class="st0" d="M918.1,319.4c0.5-1,1.1-2.4,2.1-3.9c1.2-1.9,2.6-3.1,4-3.4c1.3-0.4,2.7-0.1,4,0.7c1.4,0.9,2.2,2,2.5,3.3
			c0.4,1.7-0.1,3.8-1.3,5.7c-0.4,0.6-0.7,1.1-1.2,1.5l6.1,3.9l-1.3,2L918.1,319.4z M926.7,322.2c0.4-0.4,0.8-0.9,1.2-1.5
			c1.5-2.4,1.3-4.5-0.8-5.9c-2-1.3-3.9-0.5-5.3,1.6c-0.6,0.9-0.9,1.5-1,1.9L926.7,322.2z"/>
		<path class="st0" d="M939.6,308.6l3.7,4.7l-1.3,2l-11.8-14.9l1.5-2.4l18.5,4.6l-1.4,2.1l-5.8-1.5L939.6,308.6z M941.3,302.7
			l-5.3-1.3c-1.2-0.3-2.2-0.7-3.3-1l0,0c0.8,0.8,1.5,1.6,2.2,2.5l3.4,4.3L941.3,302.7z"/>
		<path class="st0" d="M939.9,285.8c0.4-1.1,1.2-2.6,2.1-3.9c1.4-2.1,2.6-3.2,4.1-3.6c1.2-0.3,2.5-0.1,3.6,0.7c2,1.3,2.5,3.4,2,5.4
			l0.1,0c1.2-0.9,2.7-0.9,4.5-0.2c2.4,0.9,4.1,1.5,4.9,1.5l-1.3,2c-0.6,0-2.1-0.5-4.3-1.3c-2.4-0.9-3.7-0.6-4.9,1.1l-1.2,1.8
			l6.5,4.2l-1.3,2L939.9,285.8z M948.1,288.3l1.3-2c1.4-2.1,1.1-4.2-0.7-5.3c-2-1.3-3.7-0.4-5.1,1.6c-0.6,0.9-1,1.7-1.1,2
			L948.1,288.3z"/>
		<path class="st0" d="M962.7,272.9l3.7,4.7l-1.3,2l-11.8-14.9l1.5-2.4l18.5,4.6L972,269l-5.8-1.5L962.7,272.9z M964.4,266.9
			l-5.3-1.3c-1.2-0.3-2.2-0.7-3.3-1l0,0c0.8,0.8,1.5,1.6,2.2,2.5l3.4,4.3L964.4,266.9z"/>
		<path class="st0" d="M990.6,239.2c-0.1,1-0.7,2.6-1.9,4.5c-2.8,4.3-7.5,5.7-12.5,2.5c-4.7-3.1-5.9-8.4-2.8-13
			c1.2-1.9,2.4-2.8,3-3.2l1.3,1.5c-0.8,0.5-1.8,1.4-2.6,2.6c-2.3,3.5-1.6,7.4,2.4,9.9c3.7,2.4,7.5,1.8,9.8-1.9
			c0.8-1.2,1.3-2.6,1.4-3.6L990.6,239.2z"/>
		<path class="st0" d="M996.3,214.7c5.2,3.4,5.9,8.3,3.4,12.2c-2.6,4-7.5,4.8-12.1,1.8c-4.8-3.1-6-8.1-3.4-12.2
			C986.9,212.4,991.8,211.8,996.3,214.7z M988.9,226.6c3.2,2.1,7.3,2.2,9.2-0.9c2-3.1,0.3-6.7-3.1-8.9c-3-1.9-7.2-2.4-9.3,0.8
			C983.7,220.9,985.6,224.4,988.9,226.6z"/>
		<path class="st0" d="M1008.8,212.2l-15.1-9.8l1.4-2.1l10.8,0.1c2.5,0,4.7,0.2,6.7,0.5l0-0.1c-2.1-1.1-4-2.3-6.4-3.8l-6.3-4.1
			l1.2-1.8l15.1,9.8l-1.3,2l-10.8-0.2c-2.4,0-4.7-0.1-6.9-0.4l0,0.1c2,1.1,3.8,2.3,6.3,3.9l6.5,4.2L1008.8,212.2z"/>
		<path class="st0" d="M1019,191.3c1.1-0.5,2.4-1.5,3.3-2.9c1.3-2,1-3.8-0.5-4.8c-1.4-0.9-2.7-0.6-4.9,0.9c-2.5,1.9-4.7,2.6-6.9,1.2
			c-2.4-1.5-2.8-4.6-0.9-7.6c1-1.5,2.1-2.4,2.9-2.9l1.2,1.6c-0.6,0.3-1.7,1-2.6,2.4c-1.3,2.1-0.6,3.6,0.4,4.3
			c1.4,0.9,2.7,0.4,4.9-1.1c2.6-1.9,4.7-2.4,6.9-1c2.3,1.5,3.2,4.5,0.9,8.1c-0.9,1.5-2.4,2.8-3.5,3.2L1019,191.3z"/>
		<path class="st0" d="M1020.3,165l-3,4.6l-1.7-1.1l7.3-11.2l1.7,1.1l-3,4.6l13.5,8.7l-1.3,2L1020.3,165z"/>
		<path class="st0" d="M1027.4,150.8c0.4-1.1,1.2-2.6,2.1-3.9c1.4-2.1,2.6-3.2,4.1-3.6c1.2-0.3,2.5-0.1,3.6,0.7c2,1.3,2.5,3.4,2,5.4
			l0.1,0c1.2-0.9,2.7-0.9,4.5-0.2c2.4,0.9,4.1,1.5,4.9,1.5l-1.3,2c-0.6,0-2.1-0.5-4.3-1.3c-2.4-0.9-3.7-0.6-4.9,1.1l-1.2,1.8
			l6.6,4.2l-1.3,2L1027.4,150.8z M1035.6,153.3l1.3-2c1.4-2.1,1.1-4.2-0.7-5.3c-2-1.3-3.7-0.4-5.1,1.6c-0.6,0.9-1,1.7-1.1,2
			L1035.6,153.3z"/>
		<path class="st0" d="M1039.5,131.8l9,5.8c3.4,2.2,5.8,1.6,7.1-0.4c1.5-2.2,0.9-4.6-2.4-6.8l-9-5.8l1.3-2l8.8,5.7
			c4.6,3,5,6.7,2.8,10c-2,3.1-5.3,4.3-10,1.2l-8.9-5.8L1039.5,131.8z"/>
	</g>
	<g>
		<path class="st0" d="M1072.5,112.8c-0.1,1-0.7,2.6-1.9,4.4l0.6,1.1c0.7-0.7,1.8-1.1,2.7-0.5c1.3,0.8,1.1,2.3,0.3,3.5
			c-0.4,0.6-0.9,1.1-1.4,1.3l-0.8-1c0.4-0.2,0.8-0.6,1.1-1.1c0.3-0.5,0.4-1.1-0.1-1.4c-0.6-0.4-1.3,0.1-2.1,1.1l-1.1-2.1
			c-2.8,3.4-7.2,4.4-11.7,1.4c-4.7-3.1-5.9-8.4-2.8-13c1.2-1.9,2.4-2.8,3-3.2l1.3,1.5c-0.8,0.5-1.8,1.4-2.6,2.6
			c-2.3,3.5-1.6,7.4,2.4,9.9c3.7,2.4,7.5,1.8,9.8-1.9c0.8-1.2,1.3-2.6,1.4-3.6L1072.5,112.8z"/>
		<path class="st0" d="M1063.4,92.9c-1.4-0.9-1.9-2-1.3-3c0.3-0.5,0.8-0.7,1.3-1.1c0.4-0.2,0.9-0.5,1.1-0.8c0.2-0.4,0.2-0.7-0.5-1.2
			l0.7-1.1c1.4,0.9,1.9,1.9,1.2,2.9c-0.3,0.5-0.7,0.8-1.3,1.1c-0.5,0.3-0.9,0.4-1.1,0.8c-0.2,0.4,0,0.8,0.6,1.2L1063.4,92.9z
			 M1074.7,100.2l3.7,4.7l-1.3,2l-11.8-14.9l1.5-2.4l18.5,4.6l-1.4,2.1l-5.8-1.5L1074.7,100.2z M1076.4,94.2l-5.3-1.3
			c-1.2-0.3-2.2-0.7-3.3-1l0,0c0.8,0.8,1.5,1.6,2.2,2.5l3.4,4.3L1076.4,94.2z"/>
	</g>
	<g>
		<path class="st0" d="M1090.6,69.1c5.2,3.4,5.9,8.3,3.4,12.2c-2.6,4-7.5,4.8-12.1,1.8c-4.8-3.1-6-8.1-3.4-12.2
			C1081.2,66.8,1086.1,66.2,1090.6,69.1z M1083.3,81c3.2,2.1,7.3,2.2,9.3-0.9c2-3.1,0.3-6.7-3.1-8.9c-3-1.9-7.2-2.4-9.3,0.8
			C1078,75.3,1079.9,78.9,1083.3,81z"/>
	</g>
	<g>
		<path class="st0" d="M877.2,473.1c-0.1,1-0.7,2.6-1.9,4.5c-2.8,4.3-7.5,5.7-12.5,2.5c-4.7-3.1-5.9-8.4-2.8-13
			c1.2-1.9,2.4-2.8,3-3.2l1.3,1.5c-0.8,0.5-1.8,1.4-2.6,2.6c-2.3,3.5-1.6,7.4,2.4,9.9c3.7,2.4,7.5,1.8,9.8-1.9
			c0.8-1.2,1.3-2.6,1.4-3.6L877.2,473.1z"/>
		<path class="st0" d="M882.9,448.6c5.2,3.4,5.9,8.3,3.4,12.2c-2.6,4-7.5,4.8-12.1,1.8c-4.8-3.1-6-8.1-3.4-12.2
			C873.5,446.3,878.4,445.7,882.9,448.6z M875.5,460.5c3.2,2.1,7.3,2.2,9.2-0.9c2-3.1,0.3-6.7-3.1-8.9c-3-1.9-7.2-2.4-9.3,0.8
			C870.2,454.8,872.2,458.3,875.5,460.5z"/>
		<path class="st0" d="M880.3,436.3l1.3-2l13.5,8.7l4.2-6.5l1.6,1.1l-5.5,8.4L880.3,436.3z"/>
		<path class="st0" d="M903.5,418.2l-3.8,5.9l5.5,3.5l4.2-6.6l1.6,1.1l-5.5,8.5l-15.1-9.8l5.3-8.2l1.6,1.1l-4,6.2l4.8,3.1l3.8-5.9
			L903.5,418.2z"/>
		<path class="st0" d="M904.4,402.7l-3,4.6l-1.7-1.1l7.3-11.2l1.7,1.1l-3,4.6l13.5,8.7l-1.3,2L904.4,402.7z"/>
		<path class="st0" d="M912.6,386.5l15.1,9.8l-1.3,2l-15.1-9.8L912.6,386.5z"/>
		<path class="st0" d="M935.3,384.6l-18.3-4.9l1.4-2.1l9,2.5c2.5,0.7,4.7,1.3,6.7,2l0,0c-1.5-1.6-3-3.4-4.5-5.4l-5.8-7.4l1.4-2.1
			l11.6,15.2L935.3,384.6z"/>
		<path class="st0" d="M940.4,366.3l3.7,4.7l-1.3,2L931.1,358l1.5-2.4l18.5,4.6l-1.4,2.1l-5.8-1.5L940.4,366.3z M942.1,360.3
			l-5.3-1.3c-1.2-0.3-2.2-0.7-3.3-1l0,0c0.8,0.8,1.5,1.6,2.2,2.5l3.4,4.3L942.1,360.3z"/>
		<path class="st0" d="M947,333.8c0.6-1.3,1.4-2.8,2.4-4.4c1.8-2.8,3.8-4.4,5.9-4.9c2.1-0.5,4.4-0.2,6.8,1.4c2.5,1.6,4,3.7,4.5,6
			c0.5,2.3-0.3,5.2-2.2,8.1c-0.9,1.4-1.7,2.5-2.5,3.4L947,333.8z M961.7,340.5c0.4-0.4,0.9-1.1,1.4-1.9c2.7-4.2,1.8-8-2.2-10.6
			c-3.6-2.3-7.1-1.8-9.8,2.3c-0.7,1-1.1,1.8-1.3,2.4L961.7,340.5z"/>
		<path class="st0" d="M972.8,311.2l-3.8,5.9l5.5,3.5l4.2-6.6l1.6,1.1l-5.5,8.5l-15.1-9.8l5.3-8.2l1.6,1.1l-4,6.2l4.8,3.1l3.8-5.9
			L972.8,311.2z"/>
		<path class="st0" d="M977.6,286.2l15.1,9.8l-1.3,2l-15.1-9.8L977.6,286.2z"/>
		<path class="st0" d="M983.2,278c0.6-1.3,1.4-2.8,2.4-4.4c1.8-2.8,3.8-4.4,5.9-4.9c2.1-0.5,4.4-0.2,6.8,1.4c2.5,1.6,4,3.7,4.5,6
			c0.5,2.3-0.3,5.2-2.2,8.1c-0.9,1.4-1.7,2.5-2.5,3.4L983.2,278z M997.8,284.8c0.4-0.4,0.9-1.1,1.4-1.9c2.7-4.2,1.8-8-2.2-10.6
			c-3.6-2.3-7.1-1.8-9.8,2.3c-0.7,1-1.1,1.8-1.3,2.4L997.8,284.8z"/>
		<path class="st0" d="M1009,255.4l-3.8,5.9l5.5,3.5l4.2-6.6l1.6,1.1l-5.5,8.5l-15.1-9.8l5.3-8.2l1.6,1.1l-4,6.2l4.8,3.1l3.8-5.9
			L1009,255.4z"/>
		<path class="st0" d="M1007.5,240.1l15.1,9.8l-1.3,2l-15.1-9.8L1007.5,240.1z"/>
		<path class="st0" d="M1024.8,236.1l3.7,4.7l-1.3,2l-11.8-14.9l1.5-2.4l18.5,4.6l-1.4,2.1l-5.8-1.5L1024.8,236.1z M1026.5,230.1
			l-5.3-1.3c-1.2-0.3-2.2-0.7-3.3-1l0,0c0.8,0.8,1.5,1.6,2.2,2.5l3.4,4.3L1026.5,230.1z"/>
		<path class="st0" d="M1037.5,221.7c1.1-0.5,2.4-1.5,3.3-2.9c1.3-2,1-3.8-0.5-4.8c-1.4-0.9-2.7-0.6-4.9,0.9
			c-2.5,1.9-4.7,2.6-6.9,1.2c-2.4-1.5-2.8-4.6-0.9-7.6c1-1.5,2.1-2.4,2.9-2.9l1.2,1.6c-0.6,0.3-1.7,1-2.6,2.4
			c-1.3,2.1-0.6,3.6,0.4,4.3c1.4,0.9,2.7,0.4,4.9-1.1c2.6-1.9,4.7-2.4,6.9-1c2.3,1.5,3.2,4.5,0.9,8.1c-0.9,1.5-2.4,2.8-3.5,3.2
			L1037.5,221.7z"/>
	</g>
	<g>
		<path class="st0" d="M1023.2,476.2c0.6-1.3,1.4-2.8,2.4-4.4c1.8-2.8,3.8-4.4,5.9-4.9c2.1-0.5,4.4-0.2,6.8,1.4c2.5,1.6,4,3.7,4.5,6
			c0.5,2.3-0.3,5.2-2.2,8.1c-0.9,1.4-1.7,2.5-2.5,3.4L1023.2,476.2z M1037.8,482.9c0.4-0.4,0.9-1.1,1.4-1.9c2.7-4.2,1.8-8-2.2-10.6
			c-3.6-2.3-7.1-1.8-9.8,2.3c-0.7,1-1.1,1.8-1.3,2.4L1037.8,482.9z"/>
		<path class="st0" d="M1048.9,453.6l-3.8,5.9l5.5,3.5l4.2-6.6l1.6,1.1l-5.5,8.5l-15.1-9.8l5.3-8.2l1.6,1.1l-4,6.2l4.8,3.1l3.8-5.9
			L1048.9,453.6z"/>
		<path class="st0" d="M1058.7,448.8c1.1-0.5,2.4-1.5,3.3-2.9c1.3-2,1-3.8-0.5-4.8c-1.4-0.9-2.7-0.6-4.9,0.9
			c-2.5,1.9-4.7,2.6-6.9,1.2c-2.4-1.5-2.8-4.6-0.9-7.6c1-1.5,2.1-2.4,2.9-2.9l1.2,1.6c-0.6,0.3-1.7,1-2.6,2.4
			c-1.3,2.1-0.6,3.6,0.4,4.3c1.4,0.9,2.7,0.4,4.9-1.1c2.6-1.9,4.7-2.4,6.9-1c2.3,1.5,3.2,4.5,0.9,8.1c-0.9,1.5-2.4,2.8-3.5,3.2
			L1058.7,448.8z"/>
		<path class="st0" d="M1057.8,422.3l15.1,9.8l-1.3,2l-15.1-9.8L1057.8,422.3z"/>
		<path class="st0" d="M1085.1,411.8c-0.3,1.1-0.9,3.1-2.2,5.2c-1.5,2.3-3.3,3.8-5.7,4.4c-2.1,0.5-4.6,0-7-1.5
			c-4.5-2.9-5.8-8.2-2.5-13.2c1.1-1.8,2.4-2.9,3.1-3.3l1.3,1.5c-0.9,0.6-1.8,1.4-2.8,2.9c-2.4,3.7-1.7,7.6,2.1,10
			c3.8,2.5,7.6,1.6,9.9-1.9c0.8-1.3,1.2-2.3,1.3-2.9l-4.5-2.9l-2,3.1l-1.6-1l3.2-5L1085.1,411.8z"/>
		<path class="st0" d="M1090.9,404.4l-15.1-9.8l1.4-2.1l10.8,0.1c2.5,0,4.7,0.2,6.7,0.5l0-0.1c-2.1-1.1-4-2.3-6.4-3.8l-6.3-4.1
			l1.2-1.8l15.1,9.8l-1.3,2l-10.8-0.2c-2.4,0-4.7-0.1-6.9-0.4l0,0.1c2,1.1,3.8,2.3,6.3,3.9l6.5,4.2L1090.9,404.4z"/>
		<path class="st0" d="M1107.4,373.7c1.1-0.5,2.4-1.5,3.3-2.9c1.3-2,1-3.8-0.5-4.8c-1.4-0.9-2.7-0.6-4.9,0.9
			c-2.5,1.9-4.7,2.6-6.9,1.2c-2.4-1.5-2.8-4.6-0.9-7.6c1-1.5,2.1-2.4,2.9-2.9l1.2,1.6c-0.6,0.3-1.7,1-2.6,2.4
			c-1.3,2.1-0.6,3.6,0.4,4.3c1.4,0.9,2.7,0.4,4.9-1.1c2.6-1.9,4.7-2.4,6.9-1c2.3,1.5,3.2,4.5,0.9,8.1c-0.9,1.5-2.4,2.8-3.5,3.2
			L1107.4,373.7z"/>
		<path class="st0" d="M1105.4,349.3c0.5-1,1.1-2.4,2.1-3.9c1.3-1.9,2.6-3.1,4-3.4c1.3-0.4,2.7-0.1,4,0.7c1.4,0.9,2.2,2,2.5,3.3
			c0.4,1.7-0.1,3.8-1.3,5.7c-0.4,0.6-0.8,1.1-1.2,1.5l6.1,3.9l-1.3,2L1105.4,349.3z M1113.9,352.1c0.4-0.4,0.8-0.9,1.2-1.5
			c1.5-2.4,1.3-4.5-0.8-5.9c-2-1.3-3.9-0.5-5.3,1.6c-0.6,0.9-0.9,1.5-1,1.9L1113.9,352.1z"/>
		<path class="st0" d="M1116.3,332.5c0.4-1.1,1.2-2.6,2.1-4c1.4-2.1,2.6-3.2,4.1-3.6c1.2-0.3,2.5-0.1,3.6,0.7c2,1.3,2.5,3.4,2,5.4
			l0.1,0c1.2-0.9,2.7-0.9,4.5-0.2c2.4,0.9,4.1,1.5,4.9,1.5l-1.3,2c-0.6,0-2.1-0.5-4.3-1.3c-2.4-0.9-3.7-0.6-4.9,1.1l-1.2,1.8
			l6.6,4.2l-1.3,2L1116.3,332.5z M1124.5,335l1.3-2c1.4-2.1,1.1-4.2-0.7-5.3c-2-1.3-3.7-0.4-5.1,1.6c-0.6,0.9-1,1.7-1.1,2
			L1124.5,335z"/>
		<path class="st0" d="M1128.4,313.4l15.1,9.8l-1.3,2l-15.1-9.8L1128.4,313.4z"/>
		<path class="st0" d="M1148.9,314.9l-15.1-9.8l1.4-2.1l10.8,0.1c2.5,0,4.7,0.2,6.7,0.5l0-0.1c-2.1-1.1-4-2.3-6.4-3.8l-6.3-4.1
			l1.2-1.8l15.1,9.8l-1.3,2l-10.8-0.2c-2.4,0-4.7-0.1-6.9-0.4l0,0.1c2,1.1,3.8,2.3,6.3,3.9l6.5,4.2L1148.9,314.9z"/>
		<path class="st0" d="M1150.1,283.6l-3,4.6l-1.7-1.1l7.3-11.2l1.7,1.1l-3,4.6l13.5,8.7l-1.3,2L1150.1,283.6z"/>
	</g>
	<g>
		<path class="st0" d="M1062.6,474.3c0.5-1,1.1-2.4,2.1-3.9c1.2-1.9,2.6-3.1,4-3.4c1.3-0.4,2.7-0.1,4,0.7c1.4,0.9,2.2,2,2.5,3.3
			c0.4,1.7-0.1,3.8-1.3,5.7c-0.4,0.6-0.8,1.1-1.2,1.5l6.1,3.9l-1.3,2L1062.6,474.3z M1071.1,477.1c0.4-0.4,0.8-0.9,1.2-1.5
			c1.5-2.4,1.3-4.5-0.8-5.9c-2-1.3-3.9-0.5-5.3,1.6c-0.6,0.9-0.9,1.5-1,1.9L1071.1,477.1z"/>
		<path class="st0" d="M1084.1,463.5l3.7,4.7l-1.3,2l-11.8-14.9l1.5-2.4l18.5,4.6l-1.4,2.1l-5.8-1.5L1084.1,463.5z M1085.8,457.5
			l-5.3-1.3c-1.2-0.3-2.2-0.7-3.3-1l0,0c0.8,0.8,1.5,1.6,2.2,2.5l3.4,4.3L1085.8,457.5z"/>
		<path class="st0" d="M1084.4,440.7c0.4-1.1,1.2-2.6,2.1-3.9c1.4-2.1,2.6-3.2,4.1-3.6c1.2-0.3,2.5-0.1,3.6,0.7c2,1.3,2.5,3.4,2,5.3
			l0.1,0c1.2-0.9,2.7-0.9,4.5-0.2c2.4,0.9,4.1,1.5,4.9,1.5l-1.3,2c-0.6,0-2.1-0.5-4.3-1.3c-2.4-0.9-3.7-0.6-4.9,1.1l-1.2,1.8
			l6.5,4.2l-1.3,2L1084.4,440.7z M1092.6,443.2l1.3-2c1.4-2.1,1.1-4.2-0.7-5.3c-2-1.3-3.7-0.4-5.1,1.6c-0.6,0.9-1,1.7-1.1,2
			L1092.6,443.2z"/>
		<path class="st0" d="M1107.2,427.7l3.7,4.7l-1.3,2l-11.8-14.9l1.5-2.4l18.5,4.6l-1.4,2.1l-5.8-1.5L1107.2,427.7z M1108.9,421.8
			l-5.3-1.3c-1.2-0.3-2.2-0.7-3.3-1l0,0c0.8,0.8,1.5,1.6,2.2,2.5l3.4,4.3L1108.9,421.8z"/>
		<path class="st0" d="M1113.8,395.3c0.5-1,1.1-2.4,2.1-3.9c1.3-1.9,2.6-3.1,4-3.4c1.3-0.4,2.7-0.1,4,0.7c1.4,0.9,2.2,2,2.5,3.3
			c0.4,1.7-0.1,3.8-1.3,5.7c-0.4,0.6-0.8,1.1-1.2,1.5l6.1,3.9l-1.3,2L1113.8,395.3z M1122.4,398c0.4-0.4,0.8-0.9,1.2-1.5
			c1.5-2.4,1.3-4.5-0.8-5.9c-2-1.3-3.9-0.5-5.3,1.6c-0.6,0.9-0.9,1.5-1,1.9L1122.4,398z"/>
		<path class="st0" d="M1124.8,378.4c0.4-1.1,1.2-2.6,2.1-3.9c1.4-2.1,2.6-3.2,4.1-3.6c1.2-0.3,2.5-0.1,3.6,0.7c2,1.3,2.5,3.4,2,5.4
			l0.1,0c1.2-0.9,2.7-0.9,4.5-0.2c2.4,0.9,4.1,1.5,4.9,1.5l-1.3,2c-0.6,0-2.1-0.5-4.3-1.3c-2.4-0.9-3.7-0.6-4.9,1.1l-1.2,1.8
			l6.5,4.2l-1.3,2L1124.8,378.4z M1132.9,381l1.3-2c1.4-2.1,1.1-4.2-0.7-5.3c-2-1.3-3.7-0.4-5.1,1.6c-0.6,0.9-1,1.7-1.1,2
			L1132.9,381z"/>
		<path class="st0" d="M1151.4,353.1c5.2,3.4,5.9,8.3,3.4,12.2c-2.6,4-7.5,4.8-12.1,1.8c-4.8-3.1-6-8.1-3.4-12.2
			C1142,350.8,1146.9,350.2,1151.4,353.1z M1144,365c3.2,2.1,7.3,2.2,9.2-0.9c2-3.1,0.3-6.7-3.1-8.9c-3-1.9-7.2-2.4-9.3,0.8
			C1138.8,359.3,1140.7,362.9,1144,365z"/>
		<path class="st0" d="M1152,339.6l-3,4.6l-1.7-1.1l7.3-11.2l1.7,1.1l-3,4.6l13.5,8.7l-1.3,2L1152,339.6z"/>
		<path class="st0" d="M1174.3,317.8c5.2,3.4,5.9,8.3,3.4,12.2c-2.6,4-7.5,4.8-12.1,1.8c-4.8-3.1-6-8.1-3.4-12.2
			C1164.9,315.5,1169.8,314.9,1174.3,317.8z M1166.9,329.7c3.2,2.1,7.3,2.2,9.3-0.9c2-3.1,0.3-6.7-3.1-8.9c-3-1.9-7.2-2.4-9.3,0.8
			C1161.7,324,1163.6,327.6,1166.9,329.7z"/>
		<path class="st0" d="M1174.9,304.3l-3,4.6l-1.7-1.1l7.3-11.2l1.7,1.1l-3,4.6l13.5,8.7l-1.3,2L1174.9,304.3z"/>
		<path class="st0" d="M1183,288.1l15.1,9.8l-1.3,2l-15.1-9.8L1183,288.1z"/>
		<path class="st0" d="M1188.6,279.9c0.5-1,1.1-2.4,2.1-3.9c1.2-1.9,2.6-3.1,4-3.4c1.3-0.4,2.7-0.1,4,0.7c1.4,0.9,2.2,2,2.5,3.3
			c0.4,1.7-0.1,3.8-1.3,5.7c-0.4,0.6-0.8,1.1-1.2,1.5l6.1,3.9l-1.3,2L1188.6,279.9z M1197.2,282.7c0.4-0.4,0.8-0.9,1.2-1.5
			c1.5-2.4,1.3-4.5-0.8-5.9c-2-1.3-3.9-0.5-5.3,1.6c-0.6,0.9-0.9,1.5-1,1.9L1197.2,282.7z"/>
		<path class="st0" d="M1210.1,269.1l3.7,4.7l-1.3,2l-11.8-14.9l1.5-2.4l18.5,4.6l-1.4,2.1l-5.8-1.5L1210.1,269.1z M1211.8,263.1
			l-5.3-1.3c-1.2-0.3-2.2-0.7-3.3-1l0,0c0.8,0.8,1.5,1.6,2.2,2.5l3.4,4.3L1211.8,263.1z"/>
	</g>
	<g>
		<path class="st0" d="M1231.9,244.8c-0.1,1-0.7,2.6-1.9,4.4l0.6,1.1c0.7-0.7,1.8-1.1,2.7-0.5c1.3,0.8,1.1,2.3,0.3,3.5
			c-0.4,0.6-0.9,1.1-1.4,1.3l-0.8-1c0.4-0.2,0.8-0.6,1.1-1.1c0.3-0.5,0.4-1.1-0.1-1.4c-0.6-0.4-1.3,0.1-2.1,1.1l-1.1-2.1
			c-2.8,3.4-7.2,4.4-11.7,1.4c-4.7-3.1-5.9-8.4-2.8-13c1.2-1.9,2.4-2.8,3-3.2l1.3,1.5c-0.8,0.5-1.8,1.4-2.6,2.6
			c-2.3,3.5-1.6,7.4,2.4,9.9c3.7,2.4,7.5,1.8,9.8-1.9c0.8-1.2,1.3-2.6,1.4-3.6L1231.9,244.8z"/>
		<path class="st0" d="M1222.7,224.8c-1.4-0.9-1.9-2-1.3-3c0.3-0.5,0.8-0.7,1.3-1.1c0.4-0.2,0.9-0.5,1.1-0.8
			c0.2-0.4,0.2-0.7-0.5-1.2l0.7-1.1c1.4,0.9,1.9,1.9,1.2,2.9c-0.3,0.5-0.7,0.8-1.3,1.1c-0.5,0.3-0.9,0.4-1.1,0.8
			c-0.2,0.4,0,0.8,0.6,1.2L1222.7,224.8z M1234,232.2l3.7,4.7l-1.3,2l-11.8-14.9l1.5-2.4l18.5,4.6l-1.4,2.1l-5.8-1.5L1234,232.2z
			 M1235.7,226.2l-5.3-1.3c-1.2-0.3-2.2-0.7-3.3-1l0,0c0.8,0.8,1.5,1.6,2.2,2.5l3.4,4.3L1235.7,226.2z"/>
	</g>
	<g>
		<path class="st0" d="M1249.9,201.1c5.2,3.4,5.9,8.3,3.4,12.2c-2.6,4-7.5,4.8-12.1,1.8c-4.8-3.1-6-8.1-3.4-12.2
			C1240.6,198.8,1245.5,198.2,1249.9,201.1z M1242.6,213c3.2,2.1,7.3,2.2,9.3-0.9c2-3.1,0.3-6.7-3.1-8.9c-3-1.9-7.2-2.4-9.3,0.8
			C1237.3,207.3,1239.3,210.8,1242.6,213z"/>
	</g>
	<g>
		<polyline class="st0" points="86.4,554 1036.3,554 1036.3,546 86.4,546 86.4,554 		"/>
	</g>
	<g>
		<path class="st0" d="M92.6,550c0,4.9-3.9,8.8-8.8,8.8S75,554.9,75,550c0-4.9,3.9-8.8,8.8-8.8S92.6,545.2,92.6,550"/>
	</g>
	<g>
		<path class="st0" d="M276.9,550.1c0,4.9-3.9,8.8-8.8,8.8c-4.9,0-8.8-3.9-8.8-8.8c0-4.9,3.9-8.8,8.8-8.8
			C273,541.3,276.9,545.2,276.9,550.1"/>
	</g>
	<g>
		<path class="st0" d="M465.7,550.1c0,4.9-3.9,8.8-8.8,8.8c-4.9,0-8.8-3.9-8.8-8.8c0-4.9,3.9-8.8,8.8-8.8
			C461.8,541.3,465.7,545.2,465.7,550.1"/>
	</g>
	<g>
		<path class="st0" d="M650.4,550.1c0,4.9-3.9,8.8-8.8,8.8c-4.9,0-8.8-3.9-8.8-8.8c0-4.9,3.9-8.8,8.8-8.8
			C646.4,541.3,650.4,545.2,650.4,550.1"/>
	</g>
	<g>
		<path class="st0" d="M839.2,550.1c0,4.9-3.9,8.8-8.8,8.8s-8.8-3.9-8.8-8.8c0-4.9,3.9-8.8,8.8-8.8S839.2,545.2,839.2,550.1"/>
	</g>
	<g>
		<path class="st0" d="M1045.6,550.1c0,4.9-3.9,8.8-8.8,8.8c-4.9,0-8.8-3.9-8.8-8.8c0-4.9,3.9-8.8,8.8-8.8
			C1041.7,541.3,1045.6,545.2,1045.6,550.1"/>
	</g>
	<g>
		<path class="st0" d="M270.4,558.6c-0.7,0.2-1.5,0.3-2.3,0.3c-0.6,0-1.2-0.1-1.7-0.2c-2,21.6-11.7,40.9-26.1,55.4
			c-16.4,16.4-39.1,26.6-64.1,26.6c-25,0-47.7-10.1-64.1-26.6c-14.5-14.5-24.1-33.9-26.2-55.5c-0.1,0-0.1,0-0.2,0
			c0.5,10,1.7,19.7,3.7,29.2c14.6,33.5,48,56.9,86.8,56.9C225.5,644.7,266.1,606.9,270.4,558.6"/>
	</g>
	<g>
		<path class="st0" d="M85.4,550L85.4,550c0,2.9,0.1,5.8,0.2,8.6c0.1,0,0.1,0,0.2,0C85.5,555.8,85.4,552.9,85.4,550"/>
	</g>
	<g>
		<path class="st0" d="M270.8,550h-4c0,2.9-0.1,5.8-0.4,8.7c0.6,0.1,1.1,0.2,1.7,0.2c0.8,0,1.6-0.1,2.3-0.3
			C270.6,555.8,270.8,552.9,270.8,550"/>
	</g>
	<g>
		<path class="st0" d="M460.2,558.2c-1,0.4-2.2,0.7-3.3,0.7c-0.2,0-0.5,0-0.7,0c-2.2,47.7-22.5,90.7-54.1,122.3
			c-33.6,33.6-79.9,54.3-131.2,54.3c-51.2,0-97.6-20.8-131.2-54.3c-25.1-25.1-43-57.3-50.5-93.3c-0.7-1.5-1.3-3.1-1.9-4.7
			c1.4,11.4,3.4,22.7,6.1,33.7c27,71.7,96.2,122.7,177.4,122.7C372.8,739.5,455.9,659.1,460.2,558.2"/>
	</g>
	<g>
		<path class="st0" d="M460.4,550h-4c0,3-0.1,5.9-0.2,8.8c0.2,0,0.5,0,0.7,0c1.2,0,2.3-0.2,3.3-0.7
			C460.3,555.5,460.4,552.8,460.4,550"/>
	</g>
	<g>
		<path class="st0" d="M85.6,558.7C85.6,558.7,85.6,558.7,85.6,558.7c0.2,8.3,0.8,16.4,1.8,24.5c0.6,1.6,1.2,3.1,1.9,4.7
			C87.3,578.4,86.1,568.6,85.6,558.7"/>
	</g>
	<g>
		<path class="st0" d="M85.4,550L85.4,550c0,0.1,0,0.2,0,0.2c0,2.8,0,5.6,0.1,8.4c0,0,0,0,0.1,0C85.5,555.8,85.4,552.9,85.4,550"/>
	</g>
	<g>
		<path class="st0" d="M639.1,558.5c-2.2,73.1-32.7,139-81,187.3C508,796,438.8,826.9,362.3,826.9c-76.5,0-145.7-31-195.8-81.1
			c-35-35-60.7-79.4-73-129c-1.5-4-2.9-8.1-4.1-12.2c1.9,12.9,4.5,25.6,7.7,38.1c38.3,109.6,142.6,188.3,265.3,188.3
			c152.2,0,276.2-121.1,280.8-272.2c-0.5,0.1-1,0.1-1.5,0.1C640.7,558.9,639.9,558.8,639.1,558.5"/>
	</g>
	<g>
		<path class="st0" d="M643.2,550h-4c0,2.8,0,5.7-0.1,8.5c0.8,0.2,1.6,0.3,2.5,0.3c0.5,0,1,0,1.5-0.1
			C643.2,555.9,643.2,553,643.2,550"/>
	</g>
	<g>
		<path class="st0" d="M86.7,581.3c0.7,7.8,1.5,15.6,2.7,23.3c1.2,4.1,2.6,8.2,4.1,12.2c-2.7-11-4.8-22.2-6.1-33.7
			C87.1,582.6,86.9,582,86.7,581.3"/>
	</g>
	<g>
		<path class="st0" d="M85.5,558.7C85.5,558.7,85.5,558.7,85.5,558.7c0.1,7.6,0.5,15.2,1.2,22.7c0.2,0.6,0.4,1.2,0.7,1.8
			C86.4,575.1,85.8,566.9,85.5,558.7"/>
	</g>
	<g>
		<path class="st0" d="M85.4,550.3c0,2.8,0,5.6,0.1,8.4c0,0,0,0,0,0C85.5,555.9,85.4,553.1,85.4,550.3"/>
	</g>
	<g>
		<path class="st0" d="M832.7,558.6c-0.8,0.2-1.5,0.3-2.4,0.3c-0.6,0-1.1-0.1-1.6-0.2c-2.3,99.2-43.4,188.8-108.8,254.1
			c-67.3,67.3-160.2,108.9-262.8,108.9c-102.6,0-195.6-41.6-262.8-108.9c-46.3-46.3-80.4-104.8-97.2-170.2c-2.3-6.5-4.3-13-6.1-19.7
			c2.3,14.6,5.2,29.1,8.8,43.3c48.9,150.6,190.4,259.5,357.4,259.5C661.8,925.7,828.2,762.1,832.7,558.6"/>
	</g>
	<g>
		<path class="st0" d="M832.8,550h-4c0,2.9,0,5.8-0.1,8.7c0.5,0.1,1.1,0.2,1.6,0.2c0.8,0,1.6-0.1,2.4-0.3
			C832.8,555.7,832.8,552.9,832.8,550"/>
	</g>
	<g>
		<path class="st0" d="M85.4,550c0,0.1,0,0.2,0,0.2v0C85.4,550.2,85.4,550.1,85.4,550"/>
	</g>
	<g>
		<path class="st0" d="M88,599.6c0.8,7.8,1.8,15.6,3,23.4c1.8,6.7,3.8,13.2,6.1,19.7c-3.2-12.5-5.8-25.2-7.7-38.1
			C88.9,603,88.4,601.3,88,599.6"/>
	</g>
	<g>
		<path class="st0" d="M86.4,580.3c0.4,6.5,0.9,12.9,1.6,19.3c0.5,1.7,0.9,3.3,1.4,5c-1.1-7.7-2-15.4-2.7-23.3
			C86.6,581,86.5,580.7,86.4,580.3"/>
	</g>
	<g>
		<path class="st0" d="M85.5,558.7C85.5,558.7,85.5,558.7,85.5,558.7c0.1,7.3,0.4,14.5,0.9,21.6c0.1,0.3,0.2,0.7,0.3,1
			C86.1,573.9,85.7,566.3,85.5,558.7"/>
	</g>
	<g>
		<path class="st0" d="M85.4,550.3c0,2.8,0,5.6,0.1,8.4c0,0,0,0,0,0C85.4,555.9,85.4,553.1,85.4,550.3L85.4,550.3"/>
	</g>
	<g>
		<path class="st0" d="M81.4,550c0,0.1,0,0.2,0,0.3c0,0,0-0.1,0-0.1C81.4,550.2,81.4,550.1,81.4,550"/>
	</g>
	<g>
		<path class="st0" d="M81.4,550L81.4,550c0,0.1,0,0.2,0,0.2C81.4,550.2,81.4,550.1,81.4,550L81.4,550"/>
	</g>
	<g>
		<path class="st0" d="M1039.3,558.5c-0.8,0.2-1.6,0.3-2.5,0.3c-0.5,0-1,0-1.5-0.1c-2.3,127.7-55,243.1-139,327.1
			c-86,86-204.7,139.1-335.8,139.1c-131.2,0-249.9-53.2-335.8-139.1C164.8,826.2,121,750.7,99.7,666.3
			c-11.1-34-17.4-70.2-18.2-107.7c0,0,0,0,0,0C86,819.2,298.7,1029,560.4,1029C822.1,1029,1034.7,819.1,1039.3,558.5"/>
	</g>
	<g>
		<path class="st0" d="M81.4,550.3c0,2.7,0,5.5,0.1,8.2c0,0,0,0,0,0C81.4,555.8,81.4,553.1,81.4,550.3"/>
	</g>
	<g>
		<path class="st0" d="M1039.3,550h-4h0c0,2.9,0,5.8-0.1,8.7c0.5,0.1,1,0.1,1.5,0.1c0.9,0,1.7-0.1,2.5-0.3
			C1039.3,555.7,1039.3,552.9,1039.3,550"/>
	</g>
	<g>
		<path class="st0" d="M81.5,558.6c0.8,37.5,7.2,73.7,18.2,107.7c-3.6-14.2-6.5-28.6-8.8-43.3C85.4,602.4,82.2,580.8,81.5,558.6
			C81.5,558.6,81.5,558.6,81.5,558.6"/>
	</g>
	<g>
		<path class="st0" d="M81.4,550.3C81.4,550.3,81.4,550.3,81.4,550.3c0,2.8,0,5.6,0.1,8.3c0,0,0,0,0,0
			C81.5,555.8,81.4,553.1,81.4,550.3"/>
	</g>
	<g>
		<path class="st0" d="M85.4,550c0,0.1,0,0.2,0,0.2C85.4,550.2,85.4,550.1,85.4,550L85.4,550L85.4,550"/>
	</g>
	<g>
		<path class="st0" d="M81.5,558.6c0.7,22.2,3.9,43.8,9.4,64.4c-1.2-7.7-2.2-15.5-3-23.4C84.4,586.5,82.2,572.7,81.5,558.6
			C81.6,558.6,81.6,558.6,81.5,558.6"/>
	</g>
	<g>
		<path class="st0" d="M81.4,550c0,0.1,0,0.1,0,0.2c0,2.8,0,5.5,0.1,8.3c0,0,0,0,0.1,0C81.5,555.8,81.4,552.9,81.4,550"/>
	</g>
	<g>
		<path class="st0" d="M81.6,558.6c0.6,14.1,2.8,27.9,6.4,41.1c-0.7-6.4-1.2-12.8-1.6-19.3c-2.3-6.9-3.9-14.2-4.6-21.7
			C81.7,558.6,81.7,558.6,81.6,558.6"/>
	</g>
	<g>
		<path class="st0" d="M81.4,550L81.4,550c0,2.9,0.1,5.7,0.2,8.6c0.1,0,0.1,0,0.2,0C81.5,555.8,81.4,552.9,81.4,550"/>
	</g>
	<g>
		<path class="st0" d="M81.8,558.6c0.7,7.5,2.2,14.8,4.6,21.7c-0.5-7.2-0.7-14.4-0.9-21.6c-0.6,0.1-1.1,0.2-1.7,0.2
			C83.1,558.9,82.4,558.8,81.8,558.6"/>
	</g>
	<g>
		<path class="st0" d="M85.4,550h-4l0,0c0,2.9,0.1,5.8,0.4,8.6c0.6,0.1,1.3,0.2,2,0.2c0.6,0,1.2-0.1,1.7-0.2
			c-0.1-2.8-0.1-5.6-0.1-8.4C85.4,550.2,85.4,550.1,85.4,550L85.4,550L85.4,550"/>
	</g>
	<g>
		<circle class="st0" cx="83.8" cy="550" r="12.8"/>
	</g>
	<g>
		<circle class="st0" cx="268.2" cy="550" r="12.8"/>
	</g>
	<g>
		<circle class="st0" cx="458.1" cy="550" r="12.8"/>
	</g>
	<g>
		<circle class="st0" cx="641" cy="550" r="12.8"/>
	</g>
	<g>
		<circle class="st0" cx="830.1" cy="550" r="12.8"/>
	</g>
	<g>
		<circle class="st0" cx="1037" cy="550" r="12.8"/>
	</g>
</g>
</svg>
