<?xml version="1.0" encoding="utf-8"?>
<!-- Generator: Adobe Illustrator 23.0.0, SVG Export Plug-In . SVG Version: 6.00 Build 0)  -->
<svg version="1.1" id="Camada_1" xmlns="http://www.w3.org/2000/svg" xmlns:xlink="http://www.w3.org/1999/xlink" x="0px" y="0px"
	 viewBox="0 0 329 105" style="enable-background:new 0 0 329 105;" xml:space="preserve">
<style type="text/css">
	.st0{fill:#FFFFFF;}
</style>
<g>
	<g>
		<g>
			<path class="st0" d="M70.1,86.81h-2.37v-0.52h5.32v0.52h-2.38v6.55H70.1V86.81z"/>
			<path class="st0" d="M80.49,89.89h-3.6v2.94h3.94l-0.08,0.52h-4.43v-7.07h4.35v0.52h-3.78v2.56h3.6V89.89z"/>
			<path class="st0" d="M89.79,91.46c-0.33,1.13-1.16,1.98-2.66,1.98c-2.03,0-3.1-1.61-3.1-3.6c0-1.91,1.05-3.65,3.12-3.65
				c1.53,0,2.43,0.85,2.66,2.04h-0.57c-0.32-0.91-0.91-1.52-2.13-1.52c-1.75,0-2.48,1.6-2.48,3.12c0,1.51,0.72,3.1,2.52,3.1
				c1.15,0,1.73-0.6,2.08-1.46H89.79z"/>
			<path class="st0" d="M93.44,93.35v-7.07h0.83c1.1,1.69,3.66,5.62,4.1,6.39h0.01c-0.06-1.01-0.05-2.06-0.05-3.21v-3.18h0.57v7.07
				h-0.77c-1.04-1.63-3.65-5.72-4.15-6.5h-0.01c0.05,0.92,0.04,1.96,0.04,3.24v3.26H93.44z"/>
			<path class="st0" d="M109.04,89.77c0,1.93-1.03,3.69-3.22,3.69c-1.99,0-3.16-1.61-3.16-3.64c0-2,1.12-3.64,3.23-3.64
				C107.84,86.18,109.04,87.71,109.04,89.77z M103.28,89.79c0,1.62,0.89,3.14,2.58,3.14c1.82,0,2.58-1.49,2.58-3.15
				c0-1.64-0.86-3.08-2.56-3.08C104.07,86.7,103.28,88.2,103.28,89.79z"/>
			<path class="st0" d="M112.81,86.29h0.57v6.55h3.79l-0.1,0.52h-4.25V86.29z"/>
			<path class="st0" d="M126.49,89.77c0,1.93-1.03,3.69-3.22,3.69c-1.99,0-3.16-1.61-3.16-3.64c0-2,1.12-3.64,3.23-3.64
				C125.29,86.18,126.49,87.71,126.49,89.77z M120.72,89.79c0,1.62,0.89,3.14,2.58,3.14c1.82,0,2.58-1.49,2.58-3.15
				c0-1.64-0.86-3.08-2.56-3.08C121.52,86.7,120.72,88.2,120.72,89.79z"/>
			<path class="st0" d="M135.73,93.35h-0.47c-0.04-0.08-0.06-0.44-0.07-1.12c-0.26,0.49-0.81,1.2-2.28,1.2
				c-2.03,0-3.07-1.54-3.07-3.55c0-2.11,1.11-3.7,3.19-3.7c1.53,0,2.54,0.8,2.76,2.1h-0.57c-0.3-0.99-0.99-1.58-2.22-1.58
				c-1.76,0-2.56,1.37-2.56,3.15c0,1.61,0.77,3.07,2.49,3.07c1.76,0,2.25-1.15,2.25-2.69v-0.08h-2.27v-0.52h2.81V93.35z"/>
			<path class="st0" d="M140.26,86.29v7.07h-0.57v-7.07H140.26z"/>
			<path class="st0" d="M145.19,90.93l-0.89,2.43h-0.58l2.59-7.07h0.67l2.7,7.07h-0.62l-0.91-2.43H145.19z M147.98,90.41
				c-0.78-2.09-1.18-3.1-1.33-3.57h-0.01c-0.17,0.54-0.62,1.79-1.26,3.57H147.98z"/>
			<path class="st0" d="M152.18,94.51c0.5-0.99,0.68-1.89,0.71-2.46h0.53c-0.07,0.84-0.4,1.84-0.77,2.46H152.18z"/>
			<path class="st0" d="M162.02,91.45c0.21,0.93,0.83,1.48,1.99,1.48c1.28,0,1.77-0.64,1.77-1.4c0-0.79-0.35-1.28-1.9-1.66
				c-1.5-0.38-2.15-0.86-2.15-1.88c0-0.94,0.68-1.8,2.2-1.8c1.56,0,2.22,0.95,2.31,1.81h-0.59c-0.16-0.75-0.65-1.29-1.76-1.29
				c-1.01,0-1.56,0.47-1.56,1.25c0,0.77,0.46,1.07,1.76,1.39c1.99,0.49,2.29,1.29,2.29,2.14c0,1.05-0.76,1.94-2.4,1.94
				c-1.77,0-2.42-1.03-2.55-1.98H162.02z"/>
			<path class="st0" d="M170.65,86.29v4.28c0,1.87,1.05,2.35,2.05,2.35c1.17,0,2.05-0.49,2.05-2.35v-4.28h0.58v4.25
				c0,2.22-1.18,2.9-2.64,2.9c-1.4,0-2.61-0.75-2.61-2.81v-4.34H170.65z"/>
			<path class="st0" d="M179.47,86.29h2.48c1.36,0,2.09,0.72,2.09,1.74c0,0.84-0.5,1.38-1.09,1.54c0.5,0.14,1.34,0.64,1.34,1.74
				c0,1.41-1.06,2.04-2.29,2.04h-2.52V86.29z M181.77,89.32c1.21,0,1.67-0.45,1.67-1.26c0-0.69-0.48-1.25-1.46-1.25h-1.95v2.51
				H181.77z M180.03,92.83H182c0.93,0,1.7-0.46,1.7-1.49c0-0.89-0.57-1.5-1.98-1.5h-1.69V92.83z"/>
			<path class="st0" d="M188.11,91.45c0.21,0.93,0.83,1.48,1.99,1.48c1.28,0,1.77-0.64,1.77-1.4c0-0.79-0.35-1.28-1.9-1.66
				c-1.5-0.38-2.15-0.86-2.15-1.88c0-0.94,0.68-1.8,2.2-1.8c1.56,0,2.22,0.95,2.31,1.81h-0.59c-0.16-0.75-0.65-1.29-1.75-1.29
				c-1.01,0-1.56,0.47-1.56,1.25c0,0.77,0.46,1.07,1.76,1.39c1.99,0.49,2.29,1.29,2.29,2.14c0,1.05-0.76,1.94-2.4,1.94
				c-1.77,0-2.42-1.03-2.55-1.98H188.11z"/>
			<path class="st0" d="M197.64,86.81h-2.37v-0.52h5.32v0.52h-2.38v6.55h-0.58V86.81z"/>
			<path class="st0" d="M204.61,90.93l-0.89,2.43h-0.58l2.59-7.07h0.67l2.7,7.07h-0.62l-0.91-2.43H204.61z M207.39,90.41
				c-0.78-2.09-1.18-3.1-1.33-3.57h-0.01c-0.17,0.54-0.62,1.79-1.25,3.57H207.39z"/>
			<path class="st0" d="M212.58,93.35v-7.07h0.83c1.1,1.69,3.66,5.62,4.1,6.39h0.01c-0.06-1.01-0.05-2.06-0.05-3.21v-3.18h0.57v7.07
				h-0.77c-1.04-1.63-3.65-5.72-4.15-6.5h-0.01c0.05,0.92,0.04,1.96,0.04,3.24v3.26H212.58z"/>
			<path class="st0" d="M223.68,86.81h-2.37v-0.52h5.32v0.52h-2.38v6.55h-0.58V86.81z"/>
			<path class="st0" d="M230.47,86.29v7.07h-0.57v-7.07H230.47z"/>
			<path class="st0" d="M236.43,93.35l-2.62-7.07h0.61l1.37,3.69c0.39,1.07,0.83,2.24,0.98,2.84h0.02c0.15-0.53,0.63-1.76,1.02-2.8
				l1.42-3.73h0.6l-2.72,7.07H236.43z"/>
			<path class="st0" d="M249.12,89.77c0,1.93-1.03,3.69-3.22,3.69c-1.99,0-3.16-1.61-3.16-3.64c0-2,1.12-3.64,3.23-3.64
				C247.92,86.18,249.12,87.71,249.12,89.77z M243.36,89.79c0,1.62,0.89,3.14,2.58,3.14c1.82,0,2.58-1.49,2.58-3.15
				c0-1.64-0.86-3.08-2.56-3.08C244.15,86.7,243.36,88.2,243.36,89.79z"/>
			<path class="st0" d="M257.66,86.34h4.58v0.88h-3.56v2.17h3.34v0.88h-3.34v3.08h-1.02V86.34z"/>
			<path class="st0" d="M270.11,90.12h-3.46v2.35h3.81l-0.13,0.88h-4.69v-7.02h4.64v0.88h-3.63v2.02h3.46V90.12z"/>
			<path class="st0" d="M279.9,90.43c0-1.28,0.01-2.61,0.04-3.36h-0.04c-0.31,1.19-1.36,4.08-2.14,6.28h-0.92
				c-0.59-1.82-1.68-5.06-1.99-6.3h-0.03c0.05,0.81,0.08,2.35,0.08,3.55v2.74h-0.97v-7.02h1.55c0.75,2.11,1.65,4.82,1.89,5.75h0.02
				c0.17-0.72,1.24-3.69,2.02-5.75h1.51v7.02h-1.01V90.43z"/>
			<path class="st0" d="M285.99,86.34v7.02h-1.04v-7.02H285.99z"/>
			<path class="st0" d="M290.03,93.35v-7.02h1.36c0.98,1.63,3.06,4.99,3.44,5.76h0.01c-0.07-0.87-0.06-2-0.06-3.14v-2.61h0.97v7.02
				h-1.28c-0.89-1.49-3.08-5.16-3.51-5.95h-0.02c0.05,0.76,0.05,2,0.05,3.27v2.68H290.03z"/>
			<path class="st0" d="M300.83,86.34v7.02h-1.04v-7.02H300.83z"/>
			<path class="st0" d="M304.87,93.35v-7.02h1.35c0.98,1.63,3.06,4.99,3.44,5.76h0.02c-0.07-0.87-0.06-2-0.06-3.14v-2.61h0.97v7.02
				h-1.28c-0.89-1.49-3.08-5.16-3.51-5.95h-0.01c0.05,0.76,0.05,2,0.05,3.27v2.68H304.87z"/>
			<path class="st0" d="M320.81,89.81c0,1.93-1.1,3.65-3.32,3.65c-2.09,0-3.24-1.6-3.24-3.61c0-2.01,1.2-3.61,3.33-3.61
				C319.56,86.24,320.81,87.71,320.81,89.81z M315.33,89.82c0,1.49,0.74,2.76,2.2,2.76c1.58,0,2.19-1.3,2.19-2.75
				c0-1.48-0.7-2.71-2.19-2.71C316,87.11,315.33,88.34,315.33,89.82z"/>
		</g>
	</g>
	<path class="st0" d="M120.69,34.36v43.56H97.44V43.37"/>
	<path class="st0" d="M97.44,33.99V15.18h23.24v0.25"/>
	<path class="st0" d="M123.27,55.72h23.24c0,1.03,0.52,2.07,1.29,2.84s2.58,1.29,5.16,1.81c2.58,0.52,6.46,0.77,11.1,0.77
		c4.65,0,8.01,0,10.33-0.26s3.87-0.52,4.39-1.03c0.77-0.52,1.03-1.03,1.03-1.81c0-0.77-0.26-1.29-0.52-1.55
		c-0.26-0.26-1.03-0.77-2.58-1.03c-1.29-0.26-2.84-0.52-4.91-0.52c-2.07,0-4.91-0.26-8.78-0.26c-14.46-0.52-24.53-2.07-30.21-5.16
		c-5.94-2.84-8.78-8.01-8.78-14.98c0-0.51,0.02-1.01,0.06-1.5c0.94-12.16,13.59-18.12,38.16-18.12c2.8,0,5.45,0.09,7.95,0.26
		c8.78,0.61,15.69,2.29,20.72,4.9c6.46,3.36,9.55,9.04,9.55,16.79h-23.24c0-1.55-1.29-2.58-3.87-3.1
		c-2.58-0.52-6.97-0.77-12.91-0.77c-5.42,0-9.04,0.26-10.59,0.52c-1.55,0.52-2.58,1.29-2.58,2.32c0,1.03,0.77,1.81,2.32,2.07
		c1.55,0.26,5.94,0.52,13.43,0.77c4.65,0.26,8.52,0.52,11.62,0.52c3.1,0.26,6.2,0.52,9.55,1.03c3.36,0.52,6.2,1.29,8.26,2.07
		s3.87,1.81,5.68,3.36c1.81,1.29,3.1,3.1,3.87,4.91c0.77,2.07,1.29,4.39,1.29,6.97c0,4.13-0.77,7.75-2.58,10.59
		c-1.81,2.84-4.39,5.16-8.01,6.71s-7.75,2.58-12.4,3.36c-4.65,0.77-10.33,1.03-17.04,1.03c-13.69,0-24.02-1.55-30.21-4.91
		C126.63,70.44,123.27,64.5,123.27,55.72z"/>
	<path class="st0" d="M229.4,15.18v62.75h-23.24V15.18H229.4z"/>
	<path class="st0" d="M293.71,77.67l-4.39-11.36h-26.6l-4.39,11.36h-25.31l25.82-62.75h34.6l25.82,62.75H293.71z M268.92,50.3h14.46
		l-7.23-19.11L268.92,50.3z"/>
	<g>
		<path class="st0" d="M75.24,51.97l18.08-14.64V14.92l0,0c-27.12,0-29.7,27.89-29.7,27.89L43.99,14.92H13v62.49h23.24V40.74
			l26.6,36.67h30.21V45.07L75.24,51.97z"/>
	</g>
</g>
</svg>
