<svg width="40" height="40" id="Layer_1" data-name="Layer 1" xmlns="http://www.w3.org/2000/svg" viewBox="0 0 64 64"><defs><style>.cls-1{fill:#fff;}</style></defs><title>logo</title><path class="cls-1" d="M32,32.87h0l-2.92-5.05L21.88,15.35l-1.76-3a1.64,1.64,0,0,0-.77-.79,9.11,9.11,0,0,0-1.6-.12l-4.22.08c-1.18,0-2.18.33-2.28,1.49l-.2,2.27-.22,2.55,9.4,16.31,5.52,9.57L26,44a2.1,2.1,0,0,0,1.82,1h8.38a2.1,2.1,0,0,0,1.78-1l.27-.42Z"/><path class="cls-1" d="M20.12,12.22a1.64,1.64,0,0,0-.77-.79,9.11,9.11,0,0,0-1.6-.12h0l-4.21.07c-1.18,0-2.18.33-2.28,1.49l-.2,2.27-.23,2.57L8,49.81c-.1,1.16.75,2.76,1.91,2.87h6.56a2.11,2.11,0,0,0,2.28-1.92L20.23,34l.21-2.37,1.44-16.29Z"/><path class="cls-1" d="M32,32.87h0L35,27.81l7.19-12.45,1.76-3a1.6,1.6,0,0,1,.77-.79,8.22,8.22,0,0,1,1.6-.12h0l4.21.08c1.18,0,2.18.33,2.28,1.49l.2,2.27.22,2.55-9.4,16.4v-.09l-5.53,9.56-.2.35a2.12,2.12,0,0,1-1.83,1.06H27.84a2.1,2.1,0,0,1-1.78-1l-.27-.43Z"/><path class="cls-1" d="M43.93,12.29c.19-.37.41-.75.74-.85a8.22,8.22,0,0,1,1.6-.12l4.22.08c1.18,0,2.18.33,2.28,1.49l.2,2.27.22,2.57L56,49.82c.1,1.16-.75,2.77-1.91,2.87H47.52a2.11,2.11,0,0,1-2.28-1.92L43.78,34l-.21-2.37-1.4-16.32Z"/></svg>