<?xml version="1.0" encoding="utf-8"?>
<!-- Generator: Adobe Illustrator 19.2.0, SVG Export Plug-In . SVG Version: 6.00 Build 0)  -->
<svg version="1.1" xmlns="http://www.w3.org/2000/svg" xmlns:xlink="http://www.w3.org/1999/xlink" x="0px" y="0px"
	 viewBox="0 0 109.3 113.3" style="enable-background:new 0 0 109.3 113.3;" xml:space="preserve">
<style type="text/css">
	.st0{fill:#780000;}
	.st1{fill:#FFFFFF;}
	.st2{font-family:'Roboto-Condensed';}
	.st3{font-size:5.5602px;}
</style>
<g id="BACKGROUND">
</g>
<g id="OBJECTS">
	<rect x="-24" y="-10.5" class="st0" width="160" height="135.9"/>
	<g>
		<g>
			<g>
				<path class="st1" d="M55,76c-16.9,0-30.6-13.7-30.6-30.6c0-16.9,13.7-30.6,30.6-30.6s30.6,13.7,30.6,30.6
					C85.5,62.3,71.8,76,55,76z M55,15.6c-16.4,0-29.8,13.4-29.8,29.8c0,16.4,13.4,29.8,29.8,29.8c16.4,0,29.8-13.4,29.8-29.8
					C84.8,29,71.4,15.6,55,15.6z"/>
			</g>
			<g>
				<path class="st1" d="M55,72.4c-3.2,0-6.3-0.6-9.3-1.7c-2.7-1-5.1-2.4-7.3-4.1c-5.3-4.2-8.8-10.2-9.9-16.9
					c-0.2-1.5-0.4-2.9-0.4-4.2c0-1.3,0.1-2.7,0.4-4.2c1.1-6.7,4.6-12.7,9.9-16.9c2.2-1.7,4.7-3.1,7.3-4.1c5.5-2.1,11.5-2.2,17-0.6
					c3.4,1,6.5,2.7,9.3,4.9c5.1,4.1,8.5,10,9.5,16.5c0.3,1.6,0.4,3,0.4,4.4c0,1.4-0.1,2.8-0.4,4.4C80.4,56.3,77,62.1,72,66.3
					c-2.8,2.2-5.9,3.9-9.3,4.9C60.1,72,57.6,72.4,55,72.4z M38.4,65.7c0.1,0.1,0.2,0.2,0.4,0.3c2.1,1.7,4.5,3,7.1,4
					c5.4,2,11.1,2.2,16.6,0.5c0.4-0.1,0.7-0.2,1.1-0.3V51.3l-9,5.2l-0.1,0L38.4,65.7z M64.3,50.8v19.1c2.6-1,5-2.4,7.2-4.2
					c4.9-4,8.1-9.6,9.2-15.8l-16.4-9.2V50.8z M29.2,40.9c0,0.2-0.1,0.3-0.1,0.5c-0.2,1.5-0.4,2.8-0.4,4.1c0,1.3,0.1,2.6,0.4,4.1
					c1,6.1,4,11.6,8.6,15.6l16-9.1L29.2,40.9z M46.7,50.7l7.8,4.9l9-5.2v-9.9l-9-5.2l-7.8,4.9V50.7z M29.4,40.1L46,50.3V21h0.8v18.3
					l23.6-15c-2.4-1.7-5-3.1-7.9-3.9c-5.4-1.6-11.2-1.4-16.6,0.5c-2.6,1-5,2.3-7.1,4C33.9,28.7,30.7,34.1,29.4,40.1z M55.3,34.8
					l25.6,14.3c0.2-1.3,0.3-2.5,0.3-3.7c0-1.3-0.1-2.7-0.4-4.2l0,0c-1-6.3-4.3-12-9.3-16c-0.2-0.1-0.3-0.3-0.5-0.4L55.3,34.8z"/>
			</g>
		</g>
	</g>
	<text transform="matrix(1 0 0 1 16.6974 96.7693)" class="st1 st2 st3">CARREGAR FOTO PARA CADASTRO</text>
</g>
<g id="DESIGNED_BY_FREEPIK">
</g>
</svg>
