<?xml version="1.0" encoding="utf-8"?>
<!-- Generator: Adobe Illustrator 19.2.0, SVG Export Plug-In . SVG Version: 6.00 Build 0)  -->
<svg version="1.1" id="Layer_1" xmlns="http://www.w3.org/2000/svg" xmlns:xlink="http://www.w3.org/1999/xlink" x="0px" y="0px"
	 viewBox="0 0 50 50" style="enable-background:new 0 0 50 50;" xml:space="preserve">
<style type="text/css">
	.st0{fill:#FFFFFF;}
</style>
<path class="st0" d="M39.3,15.8l-13.8-8c-0.3-0.2-0.7-0.2-1,0l-13.8,8c-0.3,0.2-0.5,0.5-0.5,0.9v16c0,0.4,0.2,0.7,0.5,0.9l13.8,8
	c0.2,0.1,0.3,0.1,0.5,0.1c0.2,0,0.4,0,0.5-0.1l13.8-8c0.3-0.2,0.5-0.5,0.5-0.9v-16C39.8,16.3,39.6,16,39.3,15.8z M14.4,31.7l9.7,5.6
	l-2.5,1.5l0.1,0.1l-7.2-4.2V31.7z M25,36.8c0,0-0.1,0-0.2,0l-10.4-6c0,0-0.1-0.1-0.1-0.1v-12c0-0.1,0-0.1,0.1-0.1l1.2-0.7l0,0l3-1.7
	l6.2-3.6c0,0,0.1,0,0.1,0c0,0,0.1,0,0.1,0l10.4,6c0.1,0,0.1,0.1,0.1,0.1v12c0,0.1,0,0.1-0.1,0.1L25,36.8z M35.5,17.6L25.8,12
	l2.6-1.5l7.1,4.1V17.6z M24.8,8.5C24.9,8.5,24.9,8.5,24.8,8.5c0.1,0,0.1,0,0.2,0l2.5,1.4l-5.9,3.4l-7.2,4.2v-3L24.8,8.5z M10.9,32.6
	v-16c0-0.1,0-0.1,0.1-0.1l2.5-1.4v3.6v12v3.6L11,32.8C11,32.7,10.9,32.7,10.9,32.6z M25,40.8c0,0-0.1,0-0.2,0l-2.5-1.4l12.4-7.2l0,0
	l0.7-0.4v3L25,40.8z M38.9,32.6c0,0.1,0,0.1-0.1,0.1l-2.5,1.4v-3.6v-12v-3.6l2.5,1.4c0,0,0.1,0.1,0.1,0.1V32.6z"/>
</svg>
