<?xml version="1.0" encoding="utf-8"?>
<!-- Generator: Adobe Illustrator 23.0.4, SVG Export Plug-In . SVG Version: 6.00 Build 0)  -->
<svg version="1.1" id="Layer_1" xmlns="http://www.w3.org/2000/svg" xmlns:xlink="http://www.w3.org/1999/xlink" x="0px" y="0px"
	 viewBox="0 0 50 50" style="enable-background:new 0 0 50 50;" xml:space="preserve">
<style type="text/css">
	.st0{fill:#FFFFFF;}
</style>
<g>
	<g>
		<path class="st0" d="M25.3,30.5c-6.5,0-11.7-5.3-11.7-11.7S18.9,7.1,25.3,7.1S37,12.4,37,18.8S31.8,30.5,25.3,30.5z M25.3,7.8
			c-6.1,0-11.1,5-11.1,11.1s5,11.1,11.1,11.1s11.1-5,11.1-11.1S31.4,7.8,25.3,7.8z"/>
	</g>
	<g>
		<path class="st0" d="M25.3,28.6c-5.4,0-9.8-4.4-9.8-9.8s4.4-9.8,9.8-9.8s9.8,4.4,9.8,9.8S30.7,28.6,25.3,28.6z M25.3,9.7
			c-5,0-9.1,4.1-9.1,9.1s4.1,9.1,9.1,9.1s9.1-4.1,9.1-9.1S30.4,9.7,25.3,9.7z"/>
	</g>
</g>
<g>
	<g>
		<path class="st0" d="M35.7,42.9c-6.5,0-11.7-5.3-11.7-11.7s5.3-11.7,11.7-11.7s11.7,5.3,11.7,11.7S42.2,42.9,35.7,42.9z
			 M35.7,20.1c-6.1,0-11.1,5-11.1,11.1s5,11.1,11.1,11.1s11.1-5,11.1-11.1S41.8,20.1,35.7,20.1z"/>
	</g>
	<g>
		<path class="st0" d="M35.7,40.9c-5.4,0-9.8-4.4-9.8-9.8s4.4-9.8,9.8-9.8s9.8,4.4,9.8,9.8S41.1,40.9,35.7,40.9z M35.7,22.1
			c-5,0-9.1,4.1-9.1,9.1s4.1,9.1,9.1,9.1s9.1-4.1,9.1-9.1S40.8,22.1,35.7,22.1z"/>
	</g>
</g>
<g>
	<g>
		<path class="st0" d="M15.3,42.9c-6.5,0-11.7-5.3-11.7-11.7s5.3-11.7,11.7-11.7S27,24.7,27,31.2S21.7,42.9,15.3,42.9z M15.3,20.1
			c-6.1,0-11.1,5-11.1,11.1s5,11.1,11.1,11.1s11.1-5,11.1-11.1S21.4,20.1,15.3,20.1z"/>
	</g>
	<g>
		<path class="st0" d="M15.3,40.9c-5.4,0-9.8-4.4-9.8-9.8s4.4-9.8,9.8-9.8s9.8,4.4,9.8,9.8S20.6,40.9,15.3,40.9z M15.3,22.1
			c-5,0-9.1,4.1-9.1,9.1s4.1,9.1,9.1,9.1s9.1-4.1,9.1-9.1S20.3,22.1,15.3,22.1z"/>
	</g>
</g>
</svg>
