<?xml version="1.0" encoding="utf-8"?>
<!-- Generator: Adobe Illustrator 19.2.0, SVG Export Plug-In . SVG Version: 6.00 Build 0)  -->
<svg version="1.1" id="Layer_1" xmlns="http://www.w3.org/2000/svg" xmlns:xlink="http://www.w3.org/1999/xlink" x="0px" y="0px"
	 viewBox="0 0 50 50" style="enable-background:new 0 0 50 50;" xml:space="preserve">
<style type="text/css">
	.st0{fill:#DB4442;}
</style>
<path class="st0" d="M34.3,15.7c-1.1-4.1-4.9-7.1-9.3-7.1s-8.2,3-9.3,7.1c-4.1,1.1-7.1,4.9-7.1,9.3c0,4.4,3,8.2,7.1,9.3
	c1.1,4.1,4.9,7.1,9.3,7.1s8.2-3,9.3-7.1c4.1-1.1,7.1-4.9,7.1-9.3C41.4,20.6,38.4,16.9,34.3,15.7z M25,9.6c3.8,0,7.1,2.5,8.3,5.9
	c-0.5-0.1-1.1-0.1-1.6-0.1c-2.6,0-5,1-6.7,2.7c-1.7-1.7-4.1-2.7-6.7-2.7c-0.5,0-1.1,0-1.6,0.1C17.9,12.1,21.2,9.6,25,9.6z
	 M33.8,18.4c0,2.4-0.9,4.5-2.5,6.1c-1.1-0.9-2.3-1.6-3.7-2c-0.4-1.4-1.1-2.6-2-3.7c1.6-1.5,3.7-2.5,6.1-2.5c0.6,0,1.3,0.1,1.9,0.2
	C33.7,17.1,33.8,17.7,33.8,18.4z M33.6,33.7c-0.6,0.1-1.2,0.2-1.9,0.2c-2.4,0-4.5-0.9-6.1-2.5c0.9-1.1,1.6-2.3,2-3.7
	c1.4-0.4,2.6-1.1,3.7-2c1.5,1.6,2.5,3.7,2.5,6.1C33.8,32.4,33.7,33.1,33.6,33.7z M16.2,31.8c0-2.4,0.9-4.5,2.5-6.1
	c1.1,0.9,2.3,1.6,3.7,2c0.4,1.4,1.1,2.6,2,3.7c-1.6,1.5-3.7,2.5-6.1,2.5c-0.6,0-1.3-0.1-1.9-0.2C16.3,33.1,16.2,32.4,16.2,31.8z
	 M16.4,16.5c0.6-0.1,1.2-0.2,1.9-0.2c2.4,0,4.5,0.9,6.1,2.5c-0.9,1.1-1.6,2.3-2,3.7c-1.4,0.4-2.6,1.1-3.7,2
	c-1.5-1.6-2.5-3.7-2.5-6.1C16.2,17.7,16.3,17.1,16.4,16.5z M26.6,22.2c-0.5-0.1-1.1-0.1-1.6-0.1c-0.5,0-1.1,0-1.6,0.1
	c0.4-1,0.9-2,1.6-2.8C25.7,20.2,26.2,21.2,26.6,22.2z M27.1,25.1c0,0.6-0.1,1.3-0.2,1.9c-0.6,0.1-1.2,0.2-1.9,0.2
	c-0.6,0-1.3-0.1-1.9-0.2c-0.1-0.6-0.2-1.2-0.2-1.9c0-0.6,0.1-1.3,0.2-1.9c0.6-0.1,1.2-0.2,1.9-0.2c0.6,0,1.3,0.1,1.9,0.2
	C27,23.8,27.1,24.4,27.1,25.1z M27.9,23.5c1,0.4,2,0.9,2.8,1.6c-0.8,0.7-1.8,1.2-2.8,1.6c0.1-0.5,0.1-1.1,0.1-1.6
	C28,24.5,27.9,24,27.9,23.5z M22.1,26.7c-1-0.4-2-0.9-2.8-1.6c0.8-0.7,1.8-1.2,2.8-1.6C22.1,24,22,24.5,22,25.1
	C22,25.6,22.1,26.2,22.1,26.7z M23.4,27.9c0.5,0.1,1.1,0.1,1.6,0.1c0.5,0,1.1,0,1.6-0.1c-0.4,1-0.9,2-1.6,2.8
	C24.3,29.9,23.8,29,23.4,27.9z M9.5,25.1c0-3.8,2.5-7.1,5.9-8.3c-0.1,0.5-0.1,1.1-0.1,1.6c0,2.6,1,5,2.7,6.7
	c-1.7,1.7-2.7,4.1-2.7,6.7c0,0.5,0,1.1,0.1,1.6C12,32.2,9.5,28.9,9.5,25.1z M25,40.6c-3.8,0-7.1-2.5-8.3-5.9
	c0.5,0.1,1.1,0.1,1.6,0.1c2.6,0,5-1,6.7-2.7c1.7,1.7,4.1,2.7,6.7,2.7c0.5,0,1.1,0,1.6-0.1C32.1,38.1,28.8,40.6,25,40.6z M34.6,33.4
	c0.1-0.5,0.1-1.1,0.1-1.6c0-2.6-1-5-2.7-6.7c1.7-1.7,2.7-4.1,2.7-6.7c0-0.5,0-1.1-0.1-1.6c3.4,1.2,5.9,4.5,5.9,8.3
	C40.5,28.9,38,32.2,34.6,33.4z"/>
</svg>
