<?xml version="1.0" encoding="utf-8"?>
<!-- Generator: Adobe Illustrator 19.2.0, SVG Export Plug-In . SVG Version: 6.00 Build 0)  -->
<svg version="1.1" id="Layer_1" xmlns="http://www.w3.org/2000/svg" xmlns:xlink="http://www.w3.org/1999/xlink" x="0px" y="0px"
	 viewBox="0 0 1280 800" style="enable-background:new 0 0 1280 800;" xml:space="preserve">
<style type="text/css">
	.st0{fill:#DB4340;}
	.st1{opacity:0.3;clip-path:url(#SVGID_2_);}
	.st2{fill:#FFFFFF;}
</style>
<rect x="0" class="st0" width="1280" height="800"/>
<g>
	<defs>
		<rect id="SVGID_1_" x="0" width="1280" height="800"/>
	</defs>
	<clipPath id="SVGID_2_">
		<use xlink:href="#SVGID_1_"  style="overflow:visible;"/>
	</clipPath>
	<g class="st1">
		<path class="st2" d="M608.8,658.3l-0.6-0.4l-739.4-432.3L51.6-611.9l0.7-0.1l852.3-84.8l0.3,0.7l344.1,784.4l-0.5,0.5L608.8,658.3
			z M-128.9,224.6l737.5,431.2l638-568.2L903.5-694.7L53.3-610.1L-128.9,224.6z"/>
		<path class="st2" d="M735.7,538l-0.7-0.2L22.4,309.1l0-0.7L19.7-440l0.7-0.2l710.9-233.9l0.4,0.6l442.1,603.9l-0.4,0.6L735.7,538z
			 M24.4,307.7l710.5,228l436.4-605.3L730.6-671.7L21.7-438.6L24.4,307.7z"/>
		<path class="st2" d="M807.8,420.5l-0.7-0.1l-650.6-79l-0.1-0.7L30.5-302.5l0.6-0.4l572.8-318.5l0.5,0.5l479.9,446.4l-0.3,0.7
			L807.8,420.5z M158.2,339.6l648.5,78.8l275.3-592.4L603.6-618.9L32.7-301.5L158.2,339.6z"/>
		<path class="st2" d="M306.4,348.4L70.1-157.8l0.5-0.5L478.6-539l0.6,0.4l488,270.3l-0.1,0.7L860.8,280.1l-0.7,0.1L306.4,348.4z
			 M72.5-157.4l235,503.6l551.6-67.9L965-267.2L478.9-536.5L72.5-157.4z"/>
		<path class="st2" d="M1187.1,1049.8L-312.2,906.1l-0.2-0.7L-638.9-564.3l0.6-0.4l1296.9-764.7l0.5,0.5l1127.5,996.6l0.5,0.5
			l-0.3,0.7L1187.1,1049.8z M-310.6,904.3l1496.5,143.4l598.8-1378.9L658.4-1326.9l-1295,763.6L-310.6,904.3z"/>
		<path class="st2" d="M-5.6,925.8L-562.8-266.6l0.5-0.5L399-1165l0.6,0.4l1151,636.7l-0.1,0.7L1300.6,764.3l-0.7,0.1L-5.6,925.8z
			 M-560.4-266.1l556,1189.7l1303.3-161.2l249.5-1289.3L399.3-1162.5L-560.4-266.1z"/>
		<path class="st2" d="M232,878.1l-0.4-0.6L-444.1-55.3l0.4-0.6l678.4-930.9l0.7,0.2l1095,357.6l0,0.7l-1.7,1151.9l-0.7,0.2
			L232,878.1z M-441.6-55.3l674.4,931.1l1093.9-353.6l1.7-1149.7L235.5-984.4L-441.6-55.3z"/>
		<path class="st2" d="M476.1,778.6l-0.6-0.5L-274,146l0.3-0.7L95.8-762.8l0.7,0.1l977.9,70.8l0.2,0.7l234.8,951.9l-0.6,0.4
			L476.1,778.6z M-271.6,145.4l747.8,630.7l830.9-516.3L1072.8-690L97.1-760.7L-271.6,145.4z"/>
	</g>
</g>
</svg>
