<?xml version="1.0" encoding="utf-8"?>
<!-- Generator: Adobe Illustrator 19.2.0, SVG Export Plug-In . SVG Version: 6.00 Build 0)  -->
<svg version="1.1" id="Layer_1" xmlns="http://www.w3.org/2000/svg" xmlns:xlink="http://www.w3.org/1999/xlink" x="0px" y="0px"
	 width="1280px" height="185px" viewBox="0 0 1280 185" style="enable-background:new 0 0 1280 185;" xml:space="preserve">
<style type="text/css">
	.st0{fill:#FFFFFF;}
	.st1{font-family:'AcuminConcept-Regular';}
	.st2{font-size:13.1448px;}
	.st3{letter-spacing:2;}
	.st4{fill:none;stroke:#FFFFFF;stroke-width:7;stroke-miterlimit:10;}
</style>
<g>
	<text transform="matrix(0.5439 -0.8391 0.8391 0.5439 142.4099 90.2336)" class="st0 st1 st2 st3">JAN</text>
</g>
<line class="st4" x1="149.1" y1="108.6" x2="1143.6" y2="108.9"/>
<circle class="st0" cx="147.8" cy="108.6" r="7.6"/>
<g>
	<text transform="matrix(0.5439 -0.8391 0.8391 0.5439 232.8856 90.2339)" class="st0 st1 st2 st3">FEV</text>
</g>
<ellipse transform="matrix(0.9999 -1.626744e-02 1.626744e-02 0.9999 -1.7357 3.8906)" class="st0" cx="238.3" cy="108.6" rx="7.6" ry="7.6"/>
<g>
	<text transform="matrix(0.5439 -0.8391 0.8391 0.5439 323.3593 90.2335)" class="st0 st1 st2 st3">MAR</text>
</g>
<path class="st0" d="M339.3,108.8c0.3,4.2-4.2,7.6-10.1,7.5c-5.8-0.1-10.8-3.6-11.1-7.9c-0.3-4.2,4.2-7.6,10.1-7.5
	C334.1,101.1,339.1,104.6,339.3,108.8z"/>
<g>
	<text transform="matrix(0.5439 -0.8391 0.8391 0.5439 413.8341 90.2333)" class="st0 st1 st2 st3">ABR</text>
</g>
<ellipse transform="matrix(0.9999 -1.626744e-02 1.626744e-02 0.9999 -1.7118 6.8341)" class="st0" cx="419.2" cy="108.6" rx="7.6" ry="7.6"/>
<g>
	<text transform="matrix(0.5439 -0.8391 0.8391 0.5439 504.3087 90.2335)" class="st0 st1 st2 st3">MAI</text>
</g>
<ellipse transform="matrix(0.9999 -1.626744e-02 1.626744e-02 0.9999 -1.6998 8.3059)" class="st0" cx="509.7" cy="108.6" rx="7.6" ry="7.6"/>
<g>
	<text transform="matrix(0.5439 -0.8391 0.8391 0.5439 594.7832 90.2337)" class="st0 st1 st2 st3">JUN</text>
</g>
<ellipse transform="matrix(0.9999 -1.626744e-02 1.626744e-02 0.9999 -1.6878 9.7777)" class="st0" cx="600.2" cy="108.6" rx="7.6" ry="7.6"/>
<g>
	<text transform="matrix(0.5439 -0.8391 0.8391 0.5439 685.2578 90.2338)" class="st0 st1 st2 st3">JUL</text>
</g>
<ellipse transform="matrix(0.9999 -1.626744e-02 1.626744e-02 0.9999 -1.6759 11.2495)" class="st0" cx="690.6" cy="108.6" rx="7.6" ry="7.6"/>
<g>
	<text transform="matrix(0.5439 -0.8391 0.8391 0.5439 775.7317 90.2331)" class="st0 st1 st2 st3">AGO</text>
</g>
<ellipse transform="matrix(0.9999 -1.626744e-02 1.626744e-02 0.9999 -1.6639 12.7213)" class="st0" cx="781.1" cy="108.6" rx="7.6" ry="7.6"/>
<g>
	<text transform="matrix(0.5439 -0.8391 0.8391 0.5439 866.2071 90.2338)" class="st0 st1 st2 st3">SET</text>
</g>
<ellipse transform="matrix(0.9999 -1.626744e-02 1.626744e-02 0.9999 -1.6519 14.1931)" class="st0" cx="871.6" cy="108.6" rx="7.6" ry="7.6"/>
<g>
	<text transform="matrix(0.5439 -0.8391 0.8391 0.5439 956.6808 90.2335)" class="st0 st1 st2 st3">OUT</text>
</g>
<ellipse transform="matrix(0.9999 -1.626744e-02 1.626744e-02 0.9999 -1.6399 15.6648)" class="st0" cx="962.1" cy="108.6" rx="7.6" ry="7.6"/>
<g>
	<text transform="matrix(0.5439 -0.8391 0.8391 0.5439 1047.1545 90.2331)" class="st0 st1 st2 st3">NOV</text>
</g>
<ellipse transform="matrix(0.9999 -1.626744e-02 1.626744e-02 0.9999 -1.628 17.1366)" class="st0" cx="1052.5" cy="108.6" rx="7.6" ry="7.6"/>
<g>
	<text transform="matrix(0.5439 -0.8391 0.8391 0.5439 1137.6301 90.2334)" class="st0 st1 st2 st3">DEZ</text>
</g>
<ellipse transform="matrix(0.9999 -1.626744e-02 1.626744e-02 0.9999 -1.616 18.6084)" class="st0" cx="1143" cy="108.6" rx="7.6" ry="7.6"/>
</svg>
