<?xml version="1.0" encoding="utf-8"?>
<!-- Generator: Adobe Illustrator 19.2.0, SVG Export Plug-In . SVG Version: 6.00 Build 0)  -->
<svg version="1.1" id="Layer_1" xmlns="http://www.w3.org/2000/svg" xmlns:xlink="http://www.w3.org/1999/xlink" x="0px" y="0px"
	 viewBox="0 0 1818.2 1152.1" style="enable-background:new 0 0 1818.2 1152.1;" xml:space="preserve">
<style type="text/css">
	.st0{fill:#FFFFFF;}
	.st1{font-family:'Roboto-BoldCondensed';}
	.st2{font-size:48px;}
	.st3{letter-spacing:10;}
	.st4{fill:none;stroke:#FFFFFF;stroke-width:7;stroke-miterlimit:10;}
	.st5{opacity:0.4;}
	.st6{opacity:0.18;fill:none;stroke:#FFFFFF;stroke-width:4;stroke-miterlimit:10;}
	.st7{opacity:0.4;fill:none;stroke:#FFFFFF;stroke-width:4;stroke-miterlimit:10;}
</style>
<g>
	<text transform="matrix(0.544 -0.8391 0.8391 0.544 80.2271 208.1519)" class="st0 st1 st2 st3">JAN</text>
</g>
<line class="st4" x1="91.1" y1="238.3" x2="1718.8" y2="238.6"/>
<circle class="st0" cx="89.1" cy="238.3" r="12.5"/>
<g>
	<text transform="matrix(0.544 -0.8391 0.8391 0.544 228.3013 208.1528)" class="st0 st1 st2 st3">FEV</text>
</g>
<ellipse transform="matrix(0.9999 -1.626744e-02 1.626744e-02 0.9999 -3.8447 3.889)" class="st0" cx="237.1" cy="238.3" rx="12.5" ry="12.5"/>
<g>
	<text transform="matrix(0.544 -0.8391 0.8391 0.544 376.3727 208.1524)" class="st0 st1 st2 st3">MAR</text>
</g>
<path class="st0" d="M402.5,238.6c0.4,6.9-6.9,12.4-16.5,12.2c-9.6-0.2-17.7-6-18.1-12.9c-0.4-6.9,6.9-12.4,16.5-12.2
	C394,225.9,402.1,231.7,402.5,238.6z"/>
<g>
	<text transform="matrix(0.544 -0.8391 0.8391 0.544 524.4453 208.1521)" class="st0 st1 st2 st3">ABR</text>
</g>
<ellipse transform="matrix(0.9999 -1.626744e-02 1.626744e-02 0.9999 -3.8055 8.7065)" class="st0" cx="533.3" cy="238.3" rx="12.5" ry="12.5"/>
<g>
	<text transform="matrix(0.544 -0.8391 0.8391 0.544 672.5178 208.1519)" class="st0 st1 st2 st3">MAI</text>
</g>
<ellipse transform="matrix(0.9999 -1.626744e-02 1.626744e-02 0.9999 -3.7859 11.1152)" class="st0" cx="681.3" cy="238.3" rx="12.5" ry="12.5"/>
<g>
	<text transform="matrix(0.544 -0.8391 0.8391 0.544 820.5898 208.1525)" class="st0 st1 st2 st3">JUN</text>
</g>
<ellipse transform="matrix(0.9999 -1.626744e-02 1.626744e-02 0.9999 -3.7663 13.524)" class="st0" cx="829.4" cy="238.3" rx="12.5" ry="12.5"/>
<g>
	<text transform="matrix(0.544 -0.8391 0.8391 0.544 968.661 208.1525)" class="st0 st1 st2 st3">JUL</text>
</g>
<ellipse transform="matrix(0.9999 -1.626744e-02 1.626744e-02 0.9999 -3.7467 15.9327)" class="st0" cx="977.5" cy="238.3" rx="12.5" ry="12.5"/>
<g>
	<text transform="matrix(0.544 -0.8391 0.8391 0.544 1116.733 208.1513)" class="st0 st1 st2 st3">AGO</text>
</g>
<ellipse transform="matrix(0.9999 -1.626744e-02 1.626744e-02 0.9999 -3.7271 18.3415)" class="st0" cx="1125.6" cy="238.3" rx="12.5" ry="12.5"/>
<g>
	<text transform="matrix(0.544 -0.8391 0.8391 0.544 1264.8058 208.1524)" class="st0 st1 st2 st3">SET</text>
</g>
<ellipse transform="matrix(0.9999 -1.626744e-02 1.626744e-02 0.9999 -3.7075 20.7502)" class="st0" cx="1273.6" cy="238.3" rx="12.5" ry="12.5"/>
<g>
	<text transform="matrix(0.544 -0.8391 0.8391 0.544 1412.8782 208.1526)" class="st0 st1 st2 st3">OUT</text>
</g>
<ellipse transform="matrix(0.9999 -1.626744e-02 1.626744e-02 0.9999 -3.6879 23.159)" class="st0" cx="1421.7" cy="238.3" rx="12.5" ry="12.5"/>
<g>
	<text transform="matrix(0.544 -0.8391 0.8391 0.544 1560.9498 208.1518)" class="st0 st1 st2 st3">NOV</text>
</g>
<ellipse transform="matrix(0.9999 -1.626744e-02 1.626744e-02 0.9999 -3.6683 25.5677)" class="st0" cx="1569.8" cy="238.3" rx="12.5" ry="12.5"/>
<g>
	<text transform="matrix(0.544 -0.8391 0.8391 0.544 1709.0221 208.152)" class="st0 st1 st2 st3">DEZ</text>
</g>
<ellipse transform="matrix(0.9999 -1.626744e-02 1.626744e-02 0.9999 -3.6487 27.9765)" class="st0" cx="1717.8" cy="238.3" rx="12.5" ry="12.5"/>
<g class="st5">
	<path class="st6" d="M238,237.9c0,41.1-33.3,74.4-74.4,74.4S89.2,279,89.2,237.9"/>
	<path class="st7" d="M385.8,237.9c0,82-66.4,148.4-148.3,148.4S89.2,319.8,89.2,237.9"/>
	<path class="st7" d="M532.6,237.9c0,122.5-99.3,221.9-221.7,221.9S89.2,360.4,89.2,237.9"/>
	<path class="st7" d="M681.9,237.9c0,163.8-132.7,296.5-296.3,296.5S89.2,401.7,89.2,237.9"/>
	<path class="st7" d="M830.6,237.9c0,204.9-166,371-370.7,371S89.2,442.8,89.2,237.9"/>
	<path class="st7" d="M976.6,237.9c0,245.2-198.7,444-443.7,444S89.2,483.1,89.2,237.9"/>
	<path class="st7" d="M1125.9,237.9c0,286.5-232.1,518.7-518.3,518.7S89.2,524.4,89.2,237.9"/>
	<path class="st7" d="M1273.9,237.9c0,327.4-265.2,592.8-592.4,592.8S89.2,565.3,89.2,237.9"/>
	<path class="st7" d="M1422,237.9c0,368.3-298.3,666.9-666.4,666.9S89.2,606.2,89.2,237.9"/>
	<path class="st7" d="M1570,237.9c0,409.2-331.5,740.9-740.4,740.9S89.2,647.1,89.2,237.9"/>
	<path class="st7" d="M1718,237.9c0,450.1-364.6,815-814.4,815S89.2,688,89.2,237.9"/>
</g>
</svg>
