<?xml version="1.0" encoding="utf-8"?>
<!-- Generator: Adobe Illustrator 19.2.0, SVG Export Plug-In . SVG Version: 6.00 Build 0)  -->
<svg version="1.1" id="Camada_1" xmlns="http://www.w3.org/2000/svg" xmlns:xlink="http://www.w3.org/1999/xlink" x="0px" y="0px"
	 viewBox="0 0 1187.5 379" style="enable-background:new 0 0 1187.5 379;" xml:space="preserve">
<style type="text/css">
	.st0{fill:#FFFFFF;}
</style>
<g>
	<g>
		<g>
			<path class="st0" d="M250.7,303.9h-8.4V302h18.9v1.8h-8.4v23.2h-2V303.9z"/>
			<path class="st0" d="M287.5,314.8h-12.8v10.4h14l-0.3,1.8h-15.7V302h15.4v1.8h-13.4v9.1h12.8V314.8z"/>
			<path class="st0" d="M320.5,320.4c-1.2,4-4.1,7-9.4,7c-7.2,0-11-5.7-11-12.8c0-6.8,3.7-12.9,11.1-12.9c5.4,0,8.6,3,9.4,7.2h-2
				c-1.1-3.2-3.2-5.4-7.6-5.4c-6.2,0-8.8,5.7-8.8,11.1c0,5.4,2.6,11,8.9,11c4.1,0,6.1-2.1,7.4-5.2L320.5,320.4L320.5,320.4z"/>
			<path class="st0" d="M333.5,327.1V302h2.9c3.9,6,13,19.9,14.5,22.7h0c-0.2-3.6-0.2-7.3-0.2-11.4V302h2v25.1h-2.7
				c-3.7-5.8-12.9-20.3-14.7-23.1h0c0.2,3.3,0.1,7,0.1,11.5v11.6H333.5z"/>
			<path class="st0" d="M388.8,314.4c0,6.8-3.7,13.1-11.4,13.1c-7.1,0-11.2-5.7-11.2-12.9c0-7.1,4-12.9,11.5-12.9
				C384.5,301.7,388.8,307.1,388.8,314.4z M368.4,314.5c0,5.7,3.2,11.1,9.2,11.1c6.5,0,9.2-5.3,9.2-11.2c0-5.8-3.1-10.9-9.1-10.9
				C371.2,303.5,368.4,308.8,368.4,314.5z"/>
			<path class="st0" d="M402.2,302h2v23.2h13.4l-0.4,1.8h-15.1L402.2,302L402.2,302z"/>
			<path class="st0" d="M450.7,314.4c0,6.8-3.7,13.1-11.4,13.1c-7.1,0-11.2-5.7-11.2-12.9c0-7.1,4-12.9,11.5-12.9
				C446.4,301.7,450.7,307.1,450.7,314.4z M430.2,314.5c0,5.7,3.2,11.1,9.2,11.1c6.5,0,9.2-5.3,9.2-11.2c0-5.8-3.1-10.9-9.1-10.9
				C433.1,303.5,430.2,308.8,430.2,314.5z"/>
			<path class="st0" d="M483.5,327.1h-1.7c-0.1-0.3-0.2-1.6-0.2-4c-0.9,1.7-2.9,4.3-8.1,4.3c-7.2,0-10.9-5.5-10.9-12.6
				c0-7.5,3.9-13.1,11.3-13.1c5.4,0,9,2.8,9.8,7.4h-2c-1.1-3.5-3.5-5.6-7.9-5.6c-6.2,0-9.1,4.9-9.1,11.2c0,5.7,2.7,10.9,8.8,10.9
				c6.2,0,8-4.1,8-9.5v-0.3h-8.1v-1.8h10L483.5,327.1L483.5,327.1z"/>
			<path class="st0" d="M499.5,302v25.1h-2V302H499.5z"/>
			<path class="st0" d="M517,318.5l-3.2,8.6h-2.1L521,302h2.4l9.6,25.1h-2.2l-3.2-8.6H517z M526.9,316.7c-2.8-7.4-4.2-11-4.7-12.7h0
				c-0.6,1.9-2.2,6.3-4.5,12.7H526.9z"/>
			<path class="st0" d="M541.8,331.2c1.8-3.5,2.4-6.7,2.5-8.7h1.9c-0.2,3-1.4,6.5-2.7,8.7H541.8z"/>
			<path class="st0" d="M576.7,320.3c0.7,3.3,2.9,5.2,7.1,5.2c4.5,0,6.3-2.3,6.3-5c0-2.8-1.2-4.5-6.7-5.9c-5.3-1.3-7.6-3.1-7.6-6.7
				c0-3.3,2.4-6.4,7.8-6.4c5.5,0,7.9,3.4,8.2,6.4h-2.1c-0.6-2.7-2.3-4.6-6.2-4.6c-3.6,0-5.5,1.7-5.5,4.4c0,2.7,1.6,3.8,6.2,4.9
				c7.1,1.7,8.1,4.6,8.1,7.6c0,3.7-2.7,6.9-8.5,6.9c-6.3,0-8.6-3.7-9-7C574.6,320.3,576.7,320.3,576.7,320.3z"/>
			<path class="st0" d="M607.3,302v15.2c0,6.6,3.7,8.3,7.3,8.3c4.2,0,7.3-1.7,7.3-8.3V302h2.1v15.1c0,7.9-4.2,10.3-9.4,10.3
				c-5,0-9.3-2.7-9.3-10V302C605.3,302,607.3,302,607.3,302z"/>
			<path class="st0" d="M638.6,302h8.8c4.8,0,7.4,2.6,7.4,6.2c0,3-1.8,4.9-3.9,5.5c1.8,0.5,4.8,2.3,4.8,6.2c0,5-3.8,7.2-8.1,7.2
				h-8.9L638.6,302L638.6,302z M646.8,312.8c4.3,0,5.9-1.6,5.9-4.5c0-2.4-1.7-4.4-5.2-4.4h-6.9v8.9H646.8z M640.6,325.2h7
				c3.3,0,6-1.6,6-5.3c0-3.2-2-5.3-7-5.3h-6V325.2z"/>
			<path class="st0" d="M669.3,320.3c0.7,3.3,2.9,5.2,7.1,5.2c4.5,0,6.3-2.3,6.3-5c0-2.8-1.2-4.5-6.7-5.9c-5.3-1.3-7.6-3.1-7.6-6.7
				c0-3.3,2.4-6.4,7.8-6.4c5.5,0,7.9,3.4,8.2,6.4h-2.1c-0.6-2.7-2.3-4.6-6.2-4.6c-3.6,0-5.5,1.7-5.5,4.4c0,2.7,1.6,3.8,6.2,4.9
				c7.1,1.7,8.1,4.6,8.1,7.6c0,3.7-2.7,6.9-8.5,6.9c-6.3,0-8.6-3.7-9-7C667.2,320.3,669.3,320.3,669.3,320.3z"/>
			<path class="st0" d="M703.1,303.9h-8.4V302h18.9v1.8h-8.4v23.2H703L703.1,303.9L703.1,303.9z"/>
			<path class="st0" d="M727.8,318.5l-3.2,8.6h-2.1l9.2-25.1h2.4l9.6,25.1h-2.2l-3.2-8.6H727.8z M737.7,316.7
				c-2.8-7.4-4.2-11-4.7-12.7h0c-0.6,1.9-2.2,6.3-4.4,12.7H737.7z"/>
			<path class="st0" d="M756.1,327.1V302h2.9c3.9,6,13,19.9,14.5,22.7h0c-0.2-3.6-0.2-7.3-0.2-11.4V302h2v25.1h-2.7
				c-3.7-5.8-12.9-20.3-14.7-23.1h0c0.2,3.3,0.1,7,0.1,11.5v11.6H756.1z"/>
			<path class="st0" d="M795.4,303.9H787V302h18.9v1.8h-8.4v23.2h-2.1L795.4,303.9L795.4,303.9z"/>
			<path class="st0" d="M819.5,302v25.1h-2V302H819.5z"/>
			<path class="st0" d="M840.7,327.1l-9.3-25.1h2.2l4.9,13.1c1.4,3.8,2.9,7.9,3.5,10.1h0.1c0.5-1.9,2.2-6.2,3.6-9.9l5-13.2h2.1
				l-9.6,25.1C843.1,327.1,840.7,327.1,840.7,327.1z"/>
			<path class="st0" d="M885.7,314.4c0,6.8-3.7,13.1-11.4,13.1c-7.1,0-11.2-5.7-11.2-12.9c0-7.1,4-12.9,11.5-12.9
				C881.4,301.7,885.7,307.1,885.7,314.4z M865.2,314.5c0,5.7,3.2,11.1,9.2,11.1c6.5,0,9.2-5.3,9.2-11.2c0-5.8-3.1-10.9-9.1-10.9
				C868,303.5,865.2,308.8,865.2,314.5z"/>
			<path class="st0" d="M916,302.2h16.2v3.1h-12.6v7.7h11.8v3.1h-11.8v10.9H916V302.2z"/>
			<path class="st0" d="M960.1,315.6h-12.3v8.3h13.5l-0.5,3.1h-16.6v-24.9h16.5v3.1h-12.9v7.2h12.3V315.6z"/>
			<path class="st0" d="M994.9,316.7c0-4.5,0-9.3,0.1-11.9h-0.1c-1.1,4.2-4.8,14.5-7.6,22.3H984c-2.1-6.5-6-17.9-7.1-22.3h-0.1
				c0.2,2.9,0.3,8.3,0.3,12.6v9.7h-3.4v-24.9h5.5c2.7,7.5,5.9,17.1,6.7,20.4h0.1c0.6-2.6,4.4-13.1,7.2-20.4h5.4v24.9h-3.6
				L994.9,316.7L994.9,316.7z"/>
			<path class="st0" d="M1016.5,302.2v24.9h-3.7v-24.9H1016.5z"/>
			<path class="st0" d="M1030.8,327.1v-24.9h4.8c3.5,5.8,10.9,17.7,12.2,20.4h0c-0.2-3.1-0.2-7.1-0.2-11.1v-9.3h3.4v24.9h-4.5
				c-3.2-5.3-10.9-18.3-12.5-21.1h-0.1c0.2,2.7,0.2,7.1,0.2,11.6v9.5L1030.8,327.1L1030.8,327.1z"/>
			<path class="st0" d="M1069.1,302.2v24.9h-3.7v-24.9H1069.1z"/>
			<path class="st0" d="M1083.4,327.1v-24.9h4.8c3.5,5.8,10.9,17.7,12.2,20.4h0.1c-0.2-3.1-0.2-7.1-0.2-11.1v-9.3h3.4v24.9h-4.5
				c-3.2-5.3-10.9-18.3-12.5-21.1h0c0.2,2.7,0.2,7.1,0.2,11.6v9.5L1083.4,327.1L1083.4,327.1z"/>
			<path class="st0" d="M1140,314.5c0,6.8-3.9,12.9-11.8,12.9c-7.4,0-11.5-5.7-11.5-12.8s4.3-12.8,11.8-12.8
				C1135.5,301.9,1140,307.1,1140,314.5z M1120.5,314.6c0,5.3,2.6,9.8,7.8,9.8c5.6,0,7.8-4.6,7.8-9.8c0-5.2-2.5-9.6-7.8-9.6
				C1122.9,305,1120.5,309.3,1120.5,314.6z"/>
		</g>
	</g>
	<path class="st0" d="M430.1,117.8v154.5h-82.5V149.8L430.1,117.8z"/>
	<path class="st0" d="M347.7,116.5V49.8l82.4,0.9L347.7,116.5z"/>
	<path class="st0" d="M439.3,193.6h82.4c0,3.7,1.8,7.3,4.6,10.1c2.7,2.7,9.2,4.6,18.3,6.4c9.2,1.8,22.9,2.7,39.4,2.7
		c16.5,0,28.4,0,36.6-0.9c8.2-0.9,13.7-1.8,15.6-3.7c2.7-1.8,3.7-3.7,3.7-6.4c0-2.7-0.9-4.6-1.8-5.5c-0.9-0.9-3.7-2.7-9.2-3.7
		c-4.6-0.9-10.1-1.8-17.4-1.8c-7.3,0-17.4-0.9-31.1-0.9c-51.3-1.8-87-7.3-107.2-18.3C452,161.5,442,143.2,442,118.5
		c0-1.8,0.1-3.6,0.2-5.3c3.3-43.1,48.2-64.3,135.4-64.3c9.9,0,19.3,0.3,28.2,0.9c31.1,2.2,55.7,8.1,73.5,17.4
		c22.9,11.9,33.9,32.1,33.9,59.6h-82.4c0-5.5-4.6-9.2-13.7-11c-9.2-1.8-24.7-2.7-45.8-2.7c-19.2,0-32.1,0.9-37.6,1.8
		c-5.5,1.8-9.2,4.6-9.2,8.2s2.7,6.4,8.2,7.3c5.5,0.9,21.1,1.8,47.6,2.7c16.5,0.9,30.2,1.8,41.2,1.8c11,0.9,22,1.8,33.9,3.7
		c11.9,1.8,22,4.6,29.3,7.3s13.7,6.4,20.1,11.9c6.4,4.6,11,11,13.7,17.4c2.7,7.3,4.6,15.6,4.6,24.7c0,14.6-2.7,27.5-9.2,37.6
		c-6.4,10.1-15.6,18.3-28.4,23.8s-27.5,9.2-44,11.9c-16.5,2.7-36.6,3.7-60.4,3.7c-48.6,0-85.2-5.5-107.2-17.4
		C451.2,245.8,439.3,224.8,439.3,193.6z"/>
	<path class="st0" d="M815.7,49.8v222.6h-82.4V49.8H815.7z"/>
	<path class="st0" d="M1043.8,271.5l-15.6-40.3h-94.4l-15.6,40.3h-89.8l91.6-222.6h122.7l91.6,222.6H1043.8z M955.9,174.4h51.3
		l-25.6-67.8L955.9,174.4z"/>
	<g>
		<path class="st0" d="M268.9,180.3l64.1-51.9V48.9l0,0c-96.2,0-105.3,98.9-105.3,98.9l-69.6-98.9H48.2v221.7h82.4V140.5l94.4,130.1
			h107.2V155.8L268.9,180.3z"/>
	</g>
</g>
</svg>
