<?xml version="1.0" encoding="utf-8"?>
<!-- Generator: Adobe Illustrator 19.2.0, SVG Export Plug-In . SVG Version: 6.00 Build 0)  -->
<svg version="1.1" id="Layer_1" xmlns="http://www.w3.org/2000/svg" xmlns:xlink="http://www.w3.org/1999/xlink" x="0px" y="0px"
	 viewBox="0 0 1280 800" style="enable-background:new 0 0 1280 800;" xml:space="preserve">
<style type="text/css">
	.st0{fill:#731414;}
	.st1{opacity:0.6;}
	.st2{opacity:0.18;fill:none;stroke:#9B999F;stroke-width:4;stroke-miterlimit:10;}
</style>
<g>
	<polygon class="st0" points="1280.5,801 1.5,800 1.5,0 1280.5,0 	"/>
	<g class="st1">
		<path class="st2" d="M0,77.7c20,0,36.2-16.2,36.2-36.2S20,5.3,0,5.3"/>
		<path class="st2" d="M0,149.6c39.9,0,72.2-32.3,72.2-72.2S39.9,5.3,0,5.3"/>
		<path class="st2" d="M0,221.1c59.6,0,108-48.3,108-107.9S59.6,5.3,0,5.3"/>
		<path class="st2" d="M0,293.8c79.7,0,144.4-64.6,144.4-144.3S79.7,5.3,0,5.3"/>
		<path class="st2" d="M0,366.2c99.7,0,180.6-80.8,180.6-180.5S99.7,5.3,0,5.3"/>
		<path class="st2" d="M0,437.3c119.4,0,216.2-96.7,216.2-216S119.4,5.3,0,5.3"/>
		<path class="st2" d="M0,509.9c139.5,0,252.5-113,252.5-252.3S139.5,5.3,0,5.3"/>
		<path class="st2" d="M0,582c159.4,0,288.6-129.1,288.6-288.4S159.4,5.3,0,5.3"/>
		<path class="st2" d="M0,654c179.3,0,324.6-145.2,324.6-324.4S179.3,5.3,0,5.3"/>
		<path class="st2" d="M0,726.1c199.2,0,360.7-161.4,360.7-360.4S199.2,5.3,0,5.3"/>
		<path class="st2" d="M0,798.2c219.1,0,396.7-177.5,396.7-396.5S219.1,5.3,0,5.3"/>
	</g>
</g>
</svg>
