<?xml version="1.0" encoding="utf-8"?>
<!-- Generator: Adobe Illustrator 19.2.0, SVG Export Plug-In . SVG Version: 6.00 Build 0)  -->
<svg version="1.1" id="Layer_1" xmlns="http://www.w3.org/2000/svg" xmlns:xlink="http://www.w3.org/1999/xlink" x="0px" y="0px"
	 viewBox="0 0 1280 800" style="enable-background:new 0 0 1280 800;" xml:space="preserve">
<style type="text/css">
	.st0{fill:#FFFFFF;}
	.st1{clip-path:url(#SVGID_4_);}
	.st2{fill:#DB4442;}
</style>
<rect x="-7" y="759" class="st0" width="1286" height="41"/>
<g>
	<defs>
		<rect id="SVGID_3_" x="-7" y="759" width="1286" height="41"/>
	</defs>
	<clipPath id="SVGID_2_">
		<use xlink:href="#SVGID_3_"  style="overflow:visible;"/>
	</clipPath>
	<g style="clip-path:url(#SVGID_2_);">
		
			<rect x="-17.7" y="774.4" transform="matrix(0.6327 -0.7744 0.7744 0.6327 -596.7833 303.3878)" class="st2" width="78.4" height="12.9"/>
		
			<rect x="25.8" y="774.4" transform="matrix(0.6328 -0.7743 0.7743 0.6328 -580.7839 337.1027)" class="st2" width="78.4" height="12.9"/>
		
			<rect x="69.4" y="774.4" transform="matrix(0.6327 -0.7744 0.7744 0.6327 -564.7958 370.8339)" class="st2" width="78.4" height="12.9"/>
		
			<rect x="113.4" y="774.4" transform="matrix(0.6327 -0.7744 0.7744 0.6327 -548.6071 404.9684)" class="st2" width="78.4" height="12.9"/>
		
			<rect x="156.5" y="774.4" transform="matrix(0.6327 -0.7744 0.7744 0.6327 -532.809 438.279)" class="st2" width="78.4" height="12.9"/>
		
			<rect x="200" y="774.4" transform="matrix(0.6327 -0.7744 0.7744 0.6327 -516.8152 472.0021)" class="st2" width="78.4" height="12.9"/>
		
			<rect x="244.6" y="774.4" transform="matrix(0.6327 -0.7744 0.7744 0.6327 -500.4308 506.5489)" class="st2" width="78.4" height="12.9"/>
		
			<rect x="287.1" y="774.4" transform="matrix(0.6327 -0.7744 0.7744 0.6327 -484.8283 539.4473)" class="st2" width="78.4" height="12.9"/>
		
			<rect x="329.5" y="774.4" transform="matrix(0.6327 -0.7744 0.7744 0.6327 -469.258 572.2775)" class="st2" width="78.4" height="12.9"/>
		
			<rect x="374.2" y="774.4" transform="matrix(0.6327 -0.7744 0.7744 0.6327 -452.8411 606.8942)" class="st2" width="78.4" height="12.9"/>
		
			<rect x="417" y="774.4" transform="matrix(0.6327 -0.7744 0.7744 0.6327 -437.1406 639.9979)" class="st2" width="78.4" height="12.9"/>
		
			<rect x="460.7" y="774.4" transform="matrix(0.6327 -0.7744 0.7744 0.6327 -421.0818 673.858)" class="st2" width="78.4" height="12.9"/>
		
			<rect x="504.9" y="774.4" transform="matrix(0.6328 -0.7743 0.7743 0.6328 -404.8594 708.0495)" class="st2" width="78.4" height="12.9"/>
		
			<rect x="548.4" y="774.4" transform="matrix(0.6327 -0.7744 0.7744 0.6327 -388.8665 741.7834)" class="st2" width="78.4" height="12.9"/>
		
			<rect x="592" y="774.4" transform="matrix(0.6328 -0.7743 0.7743 0.6328 -372.873 775.4944)" class="st2" width="78.4" height="12.9"/>
		
			<rect x="635.5" y="774.4" transform="matrix(0.6327 -0.7744 0.7744 0.6327 -356.8792 809.2307)" class="st2" width="78.4" height="12.9"/>
		
			<rect x="679.1" y="774.4" transform="matrix(0.6327 -0.7744 0.7744 0.6327 -340.886 842.9514)" class="st2" width="78.4" height="12.9"/>
		
			<rect x="722.6" y="774.4" transform="matrix(0.6328 -0.7743 0.7743 0.6328 -324.8939 876.6611)" class="st2" width="78.4" height="12.9"/>
		
			<rect x="766.2" y="774.4" transform="matrix(0.6327 -0.7744 0.7744 0.6327 -308.8986 910.3989)" class="st2" width="78.4" height="12.9"/>
		
			<rect x="809.7" y="774.4" transform="matrix(0.6328 -0.7743 0.7743 0.6328 -292.9074 944.1065)" class="st2" width="78.4" height="12.9"/>
		
			<rect x="853.3" y="774.4" transform="matrix(0.6327 -0.7744 0.7744 0.6327 -276.9112 977.845)" class="st2" width="78.4" height="12.9"/>
		
			<rect x="896.8" y="774.4" transform="matrix(0.6328 -0.7743 0.7743 0.6328 -260.9209 1011.5519)" class="st2" width="78.4" height="12.9"/>
		
			<rect x="940.4" y="774.4" transform="matrix(0.6327 -0.7744 0.7744 0.6327 -244.9243 1045.2911)" class="st2" width="78.4" height="12.9"/>
		
			<rect x="983.9" y="774.4" transform="matrix(0.6328 -0.7743 0.7743 0.6328 -228.9343 1078.9973)" class="st2" width="78.4" height="12.9"/>
		
			<rect x="1027.5" y="774.4" transform="matrix(0.6327 -0.7744 0.7744 0.6327 -212.9373 1112.7351)" class="st2" width="78.4" height="12.9"/>
		
			<rect x="1070.3" y="774.4" transform="matrix(0.6327 -0.7744 0.7744 0.6327 -197.2042 1145.9088)" class="st2" width="78.4" height="12.9"/>
		
			<rect x="1114" y="774.4" transform="matrix(0.6327 -0.7744 0.7744 0.6327 -181.1455 1179.7689)" class="st2" width="78.4" height="12.9"/>
		
			<rect x="1158.1" y="774.4" transform="matrix(0.6327 -0.7744 0.7744 0.6327 -164.9567 1213.9034)" class="st2" width="78.4" height="12.9"/>
		
			<rect x="1201.5" y="774.4" transform="matrix(0.6327 -0.7744 0.7744 0.6327 -149.028 1247.4893)" class="st2" width="78.4" height="12.9"/>
		
			<rect x="1245.2" y="774.4" transform="matrix(0.6327 -0.7744 0.7744 0.6327 -132.9693 1281.3495)" class="st2" width="78.4" height="12.9"/>
	</g>
</g>
</svg>
