<?xml version="1.0" encoding="utf-8"?>
<!-- Generator: Adobe Illustrator 19.2.0, SVG Export Plug-In . SVG Version: 6.00 Build 0)  -->
<svg version="1.1" id="Layer_1" xmlns="http://www.w3.org/2000/svg" xmlns:xlink="http://www.w3.org/1999/xlink" x="0px" y="0px"
	 viewBox="0 0 50 50" style="enable-background:new 0 0 50 50;" xml:space="preserve">
<style type="text/css">
	.st0{fill:#FFFFFF;}
</style>
<path class="st0" d="M10.1,33.7l12.5,7.2c0.6,0.4,1.4,0.6,2.1,0.6c0.7,0,1.4-0.2,2.1-0.6l12.5-7.2c1.3-0.7,2.1-2.1,2.1-3.6V15.7
	c0-1.5-0.8-2.9-2.1-3.6l-7-4c-1.3-0.7-2.9-0.7-4.2,0l-3.4,2l-3.4-2c-1.3-0.7-2.9-0.7-4.2,0l-7,4.1C8.8,12.8,8,14.2,8,15.7v14.4
	C8,31.6,8.8,33,10.1,33.7z M28.6,8.9c1-0.6,2.2-0.6,3.2,0l7,4c0.3,0.2,0.6,0.5,0.9,0.8l-4.8,2.6c-0.3-0.4-0.7-0.8-1.2-1.1l-8-4.6
	L28.6,8.9z M33.1,16c0.3,0.2,0.6,0.4,0.8,0.7l-7.8,4.2c-0.9,0.5-2.1,0.5-3,0l-7.8-4.2c0.2-0.3,0.5-0.5,0.8-0.7l8.5-4.9L33.1,16z
	 M34.8,18.8v7.9c0,1.1-0.6,2.2-1.6,2.8l-6.9,4c-1,0.6-2.2,0.6-3.2,0l-6.9-4c-1-0.6-1.6-1.6-1.6-2.8v-7.9c0-0.4,0.1-0.9,0.3-1.3
	l7.8,4.2c0.6,0.3,1.3,0.5,2,0.5c0.7,0,1.4-0.2,2-0.5l7.8-4.2C34.7,17.9,34.8,18.3,34.8,18.8z M10.6,12.9l7-4.1
	c0.5-0.3,1-0.4,1.6-0.4c0.6,0,1.1,0.1,1.6,0.4l2.9,1.7l-8,4.6c-0.5,0.3-0.9,0.6-1.2,1.1l-4.8-2.6C10,13.4,10.3,13.1,10.6,12.9z
	 M9,15.7c0-0.4,0.1-0.8,0.2-1.2l4.8,2.6c-0.2,0.5-0.4,1.1-0.4,1.7v7.9c0,1.5,0.8,2.9,2.1,3.6l6.9,4c1.3,0.7,2.9,0.7,4.2,0l6.9-4
	c1.3-0.7,2.1-2.1,2.1-3.6v-7.9c0-0.6-0.1-1.2-0.4-1.7l4.8-2.6c0.2,0.4,0.2,0.8,0.2,1.2v14.4c0,1.1-0.6,2.2-1.6,2.8l-12.5,7.2
	c-1,0.6-2.2,0.6-3.2,0l-12.5-7.2c-1-0.6-1.6-1.6-1.6-2.8V15.7z"/>
</svg>
