<?xml version="1.0" encoding="utf-8"?>
<!-- Generator: Adobe Illustrator 19.2.0, SVG Export Plug-In . SVG Version: 6.00 Build 0)  -->
<svg version="1.1" id="Layer_1" xmlns="http://www.w3.org/2000/svg" xmlns:xlink="http://www.w3.org/1999/xlink" x="0px" y="0px"
	 viewBox="0 0 50 50" style="enable-background:new 0 0 50 50;" xml:space="preserve">
<style type="text/css">
	.st0{fill:#DB4442;}
</style>
<path class="st0" d="M37.7,12L35,14.7c-2.8-2.6-6.5-4.2-10.6-4.2c-4.1,0-7.8,1.6-10.6,4.2L10,10.8l-0.7,0.7l3.9,3.9
	C10.6,18.1,9,21.8,9,25.9c0,8.5,6.9,15.4,15.4,15.4c3.4,0,6.7-1.1,9.4-3.2l-0.6-0.7c-2.5,1.9-5.6,3-8.8,3c-8,0-14.5-6.5-14.5-14.5
	c0-3.8,1.5-7.3,3.9-9.9l25,25l0.7-0.7l-25-25c2.6-2.4,6.1-3.9,9.9-3.9c3.8,0,7.3,1.5,9.9,3.9l-8.5,8.5l0.7,0.7L35,16
	c2.4,2.6,3.9,6.1,3.9,9.9c0,3.2-1,6.3-3,8.8l0.7,0.6c2.1-2.7,3.2-6,3.2-9.4c0-4.1-1.6-7.8-4.2-10.6l2.7-2.7L37.7,12z"/>
</svg>
